<?xml version="1.0" standalone="no"?>
<!-- Generator: Adobe Fireworks 10, Export SVG Extension by Aaron Beall (http://fireworks.abeall.com) . Version: 0.6.0  -->
<!DOCTYPE svg PUBLIC "-//W3C//DTD SVG 1.1//EN" "http://www.w3.org/Graphics/SVG/1.1/DTD/svg11.dtd">
<svg id="" viewBox="0 0 25 18" style="background-color:#ffffff00" version="1.1"
	xmlns="http://www.w3.org/2000/svg" xmlns:xlink="http://www.w3.org/1999/xlink" xml:space="preserve"
	x="0px" y="0px" width="25px" height="18px"
>
	<path id="Shape%2036" d="M 24.5788 9.7584 L 9.3329 9.9615 C 8.8324 9.9876 8.4168 9.4561 8.4081 8.9488 C 8.3991 8.4416 8.8004 8.1503 9.301 8.1243 L 24.5468 7.9213 C 25.0474 7.8951 25.458 8.1439 25.4669 8.6513 C 25.4757 9.1586 25.0795 9.7324 24.5788 9.7584 ZM 2.163 9.273 C 2.2046 9.3118 2.2458 9.3505 2.2891 9.39 L 8.8896 15.3214 L 8.8225 11.4702 C 8.8135 10.9629 9.2123 10.5305 9.7129 10.5045 C 10.2136 10.4783 10.6266 10.8684 10.6355 11.3758 L 10.7343 17.0506 C 10.8442 17.2269 10.8336 17.4156 10.68 17.6377 C 10.5564 17.9911 10.2359 18.2568 9.8483 18.277 C 9.4618 18.2971 9.1329 18.0667 8.9965 17.7282 L 1.1356 10.6643 C 0.8104 10.367 0.6456 9.985 0.6775 9.609 C 0.6744 9.6054 0.6716 9.6035 0.6685 9.5998 C 0.226 9.0737 0.4418 8.4029 0.9756 7.9359 L 9.2543 0.8067 C 9.7881 0.3398 10.4375 0.2535 10.8802 0.7795 C 11.3228 1.3056 10.7599 1.8626 10.2263 2.3295 L 2.163 9.273 Z" fill="#51677d"/>
	<path id="Shape%2037" d="M 6.5383 9.1815 C 6.5092 7.5052 7.8265 6.0764 9.4807 5.9902 C 11.1349 5.904 12.4996 7.193 12.5289 8.8693 C 12.558 10.5455 11.2408 11.9743 9.5865 12.0605 C 7.9322 12.1467 6.5675 10.8577 6.5383 9.1815 Z" fill="#117db5"/>
</svg>