<?xml version="1.0" encoding="utf-8"?>
<!-- Generator: Adobe Illustrator 16.0.2, SVG Export Plug-In . SVG Version: 6.00 Build 0)  -->
<!DOCTYPE svg PUBLIC "-//W3C//DTD SVG 1.1//EN" "http://www.w3.org/Graphics/SVG/1.1/DTD/svg11.dtd">
<svg version="1.1" id="Layer_1" xmlns="http://www.w3.org/2000/svg" xmlns:xlink="http://www.w3.org/1999/xlink" x="0px" y="0px"
	 width="110.5px" height="70px" viewBox="0 0 110.5 70" enable-background="new 0 0 110.5 70" xml:space="preserve">
<g id="Shape_51_1_">
	<g>
		<path fill-rule="evenodd" clip-rule="evenodd" fill="#415267" d="M65.799,24.91c-0.128-0.093-0.277-0.16-0.448-0.16H49.626
			c-0.245,0-0.454,0.121-0.597,0.298c-0.225,0.12-0.413,0.302-0.413,0.518v16.93c0,0.364,0.528,0.659,0.893,0.659
			s0.66-0.295,0.66-0.659V26.303h14.716v10.651l-3.183-1.718c-0.385,0-0.887,0.527-0.988,0.945l-3.541-2.168
			c-0.012-0.001-0.026,0.002-0.038,0.001c-0.31-0.281-1.139-0.261-1.509-0.117l-2.998,2.438c-0.399,0.155-0.268,0.811-0.111,1.21
			c0.155,0.399,0.605,0.597,1.005,0.441l2.831-2.302c0.099,0.069,0.209,0.124,0.337,0.142l3.889,2.38
			c0.425,0.059,0.816-0.238,0.875-0.663c0.018-0.133,0.026-0.289,0.019-0.444l3.879,2.095c0.021,0,0.038-0.01,0.058-0.012
			c0.126,0.052,0.254,0.089,0.369,0.089c0.364,0,0.66-0.295,0.66-0.659V25.565C66.438,25.208,66.152,24.922,65.799,24.91z"/>
	</g>
</g>
<g id="Shape_52_1_">
	<g>
		<path fill-rule="evenodd" clip-rule="evenodd" fill="#415267" d="M61.925,31.976c0.048-0.036,0.103-0.061,0.146-0.102
			l-0.807-0.373c-0.194,0.067-0.413,0.065-0.614-0.028c-0.411-0.19-0.592-0.681-0.401-1.093s0.682-0.593,1.093-0.401
			c0.042,0.02,0.071,0.054,0.108,0.079l0.01-0.021l1.095,0.507c-0.062-0.525-0.382-1.009-0.896-1.247
			c-0.216-0.1-0.442-0.142-0.666-0.141l-0.633-1.491c-0.073-0.169-0.291-0.238-0.486-0.153s-0.294,0.291-0.221,0.461l0.586,1.379
			c-0.167,0.092-0.311,0.221-0.437,0.369l-0.617-0.275c-0.168-0.076-0.376,0.02-0.464,0.213c-0.088,0.194-0.021,0.413,0.146,0.489
			l0.59,0.264c-0.045,0.221-0.025,0.44,0.021,0.653c-0.058-0.006-0.116-0.003-0.17,0.024l-1.351,0.554
			c-0.165,0.084-0.221,0.306-0.124,0.496c0.097,0.189,0.309,0.275,0.473,0.191l1.352-0.555c0.046-0.023,0.081-0.059,0.109-0.101
			c0.089,0.116,0.193,0.218,0.309,0.31l-0.349,0.783c-0.076,0.169,0.019,0.377,0.213,0.464c0.194,0.088,0.413,0.022,0.489-0.146
			l0.358-0.804c0.144,0.018,0.286,0.017,0.427-0.003l0.604,1.425c0.074,0.17,0.292,0.238,0.487,0.154
			c0.195-0.085,0.294-0.292,0.221-0.462L61.925,31.976z"/>
	</g>
</g>
<g id="Shape_50_1_">
	<g>
		<polygon fill-rule="evenodd" clip-rule="evenodd" fill="#415267" points="0.096,0 0.096,66.792 1.614,66.792 1.614,60.215 
			1.644,60.215 1.644,1.549 108.855,1.549 108.855,65.244 29.95,65.244 29.95,66.792 110.404,66.792 110.404,0 		"/>
	</g>
</g>
<g id="Shape_53_1_">
	<g>
		<polygon fill="#415267" points="108.469,0.978 76.084,23.748 77.416,24.576 109.801,1.806 		"/>
	</g>
</g>
<g id="Shape_53_copy_2_1_">
	<g>
		
			<rect x="91.555" y="33.969" transform="matrix(0.575 -0.8181 0.8181 0.575 -4.861 98.1674)" fill="#415267" width="1.012" height="39.587"/>
	</g>
</g>
<g id="Shape_53_copy_1_">
	<g>
		
			<rect x="16.667" y="-7.017" transform="matrix(0.575 -0.8181 0.8181 0.575 -3.1549 19.4802)" fill="#415267" width="1.012" height="39.588"/>
	</g>
</g>
<g id="Shape_53_copy_3_1_">
	<g>
		
			<rect x="-2.115" y="54.269" transform="matrix(0.818 -0.5752 0.5752 0.818 -28.2886 20.1367)" fill="#415267" width="39.588" height="1.012"/>
	</g>
</g>
<g>
</g>
<g>
</g>
<g>
</g>
<g>
</g>
<g>
</g>
<g>
</g>
<g>
</g>
<g>
</g>
<g>
</g>
<g>
</g>
<g>
</g>
<g>
</g>
<g>
</g>
<g>
</g>
<g>
</g>
</svg>
