<?xml version="1.0" encoding="utf-8"?>
<!-- Generator: Adobe Illustrator 16.0.2, SVG Export Plug-In . SVG Version: 6.00 Build 0)  -->
<!DOCTYPE svg PUBLIC "-//W3C//DTD SVG 1.1//EN" "http://www.w3.org/Graphics/SVG/1.1/DTD/svg11.dtd">
<svg version="1.1" xmlns="http://www.w3.org/2000/svg" xmlns:xlink="http://www.w3.org/1999/xlink" x="0px" y="0px" width="31px"
	 height="31px" viewBox="0 0 31 31" enable-background="new 0 0 31 31" xml:space="preserve">
<g id="Layer_4" display="none">
	<g id="Shape_28_2_" display="inline">
		<g>
			<path fill-rule="evenodd" clip-rule="evenodd" fill="#FFFFFF" d="M19.344,5.189c-0.026-0.296-0.17-0.158-0.586-0.158H2.338
				c-0.334,0-0.62-0.086-0.759,0.03c-0.363,0.03-0.636,0.142-0.636,0.544v14.229c0,0.537,0.487,0.972,1.024,0.972
				c0.029,0,0.055-0.014,0.083-0.017c0.157,0.098,0.332,0.169,0.531,0.169h9.131c0.559,0,1.012-0.443,1.012-1.002
				s-0.453-0.875-1.012-0.875H2.99V6.996h15.027v4.602c0,0.537-0.109,0.972,0.428,0.972s1.6-0.435,1.6-0.972V5.605
				C20.045,5.311,19.723,5.217,19.344,5.189z"/>
		</g>
	</g>
	<g id="Shape_28_copy_1_" display="inline">
		<g>
			<path fill-rule="evenodd" clip-rule="evenodd" fill="#127DB5" d="M30.005,24.594V12.199c0-0.208-0.089-0.391-0.212-0.548
				c-0.11-0.352-0.42-0.632-0.797-0.632H12.834c-0.47,0-0.85,0.429-0.85,0.897c0,0.47,0.38,1.041,0.85,1.041h15.105v11.02H13.988
				v-3.615c0-0.536-0.254-0.971-0.791-0.971s-1.171,0.435-1.171,0.971v4.621c0,0.449,0.445,0.823,0.905,0.934
				c0.115,0.066,0.239,0.108,0.37,0.108H29.03c0.559,0,1.012-0.705,1.012-1.264C30.042,24.695,30.017,24.649,30.005,24.594z"/>
		</g>
	</g>
</g>
<g id="Layer_2" display="none">
	<g id="Shape_28" display="inline">
		<g>
			<path fill-rule="evenodd" clip-rule="evenodd" fill="#52677E" d="M19.344,5.189c-0.026-0.296-0.17-0.158-0.586-0.158H2.338
				c-0.334,0-0.62-0.086-0.759,0.03c-0.363,0.03-0.636,0.142-0.636,0.544v14.229c0,0.537,0.487,0.972,1.024,0.972
				c0.029,0,0.055-0.014,0.083-0.017c0.157,0.098,0.332,0.169,0.531,0.169h9.131c0.559,0,1.012-0.443,1.012-1.002
				s-0.453-0.875-1.012-0.875H2.99V6.996h15.027v4.602c0,0.537-0.109,0.972,0.428,0.972s1.6-0.435,1.6-0.972V5.605
				C20.045,5.311,19.723,5.217,19.344,5.189z"/>
		</g>
	</g>
	<g id="Shape_28_copy" display="inline">
		<g>
			<path fill-rule="evenodd" clip-rule="evenodd" fill="#127DB5" d="M30.005,24.594V12.199c0-0.208-0.089-0.391-0.212-0.548
				c-0.11-0.352-0.42-0.632-0.797-0.632H12.834c-0.47,0-0.85,0.429-0.85,0.897c0,0.47,0.38,1.041,0.85,1.041h15.105v11.02H13.988
				v-3.615c0-0.536-0.254-0.971-0.791-0.971s-1.171,0.435-1.171,0.971v4.621c0,0.449,0.445,0.823,0.905,0.934
				c0.115,0.066,0.239,0.108,0.37,0.108H29.03c0.559,0,1.012-0.705,1.012-1.264C30.042,24.695,30.017,24.649,30.005,24.594z"/>
		</g>
	</g>
</g>
<g id="Layer_3" display="none">
	<g id="Shape_28_copy_2" display="inline">
		<g>
			<path fill-rule="evenodd" clip-rule="evenodd" fill="#127DB5" d="M28.328,4.436c-1.196,0-2.166,0.874-2.166,1.951
				c0,0.042,0.011,0.082,0.014,0.123l-6.254,3.853c-0.396-0.391-0.96-0.641-1.594-0.641c-0.076,0-0.147,0.013-0.221,0.02
				l-2.943-3.609c-0.307-0.338-0.891-0.285-1.375,0.073c-0.136,0.1-0.212,0.192-0.251,0.28l-6.305,4.317
				c-0.171-0.041-0.347-0.069-0.532-0.069c-1.151,0-2.085,0.841-2.085,1.878s0.934,1.878,2.085,1.878s2.085-0.841,2.085-1.878
				c0-0.272-0.067-0.529-0.183-0.763l5.764-3.947l2.061,2.853c-0.164,0.275-0.266,0.584-0.266,0.918c0,1.077,0.97,1.95,2.166,1.95
				c1.108,0,2.012-0.754,2.139-1.723l6.502-4.006c0.372,0.273,0.842,0.443,1.359,0.443c1.195,0,2.164-0.873,2.164-1.95
				S29.523,4.436,28.328,4.436z"/>
		</g>
	</g>
	<g id="Shape_28_4_" display="inline">
		<g>
			<path fill-rule="evenodd" clip-rule="evenodd" fill="#52677E" d="M27.663,24.972H2.042V5.855c0-0.564-0.648-0.876-1.213-0.876
				c-0.564,0-0.84,0.312-0.84,0.876v19.552c0,0.564,0.567,1.022,1.132,1.022c0.048,0,0.086-0.021,0.131-0.027
				c0.195,0.345,0.482,0.622,0.807,0.622h25.603c0.589,0,1.065-0.901,1.065-1.489C28.729,24.946,28.252,24.972,27.663,24.972z
				 M27.5,10.793c-1.157,0-2.096,0.938-2.096,2.095c0,0.178,0.029,0.348,0.071,0.513l-5.615,3.492
				c-0.383-0.491-0.974-0.813-1.646-0.813c-0.157,0-0.309,0.021-0.455,0.053l-2.168-3.331c-0.277-0.337-0.907-0.306-1.344,0.053
				c-0.087,0.071-0.142,0.143-0.18,0.214l-6.332,4.276c-0.281-0.157-0.6-0.254-0.945-0.254c-1.077,0-1.95,0.873-1.95,1.95
				s0.873,1.951,1.95,1.951s1.951-0.874,1.951-1.951c0-0.099-0.015-0.192-0.029-0.287l6.088-4.113l1.613,2.478
				c-0.183,0.311-0.295,0.669-0.295,1.056c0,1.157,0.938,2.095,2.096,2.095c1.003,0,1.838-0.706,2.043-1.647l6.262-3.893
				c0.294,0.157,0.624,0.254,0.98,0.254c1.156,0,2.095-0.938,2.095-2.095S28.656,10.793,27.5,10.793z"/>
		</g>
	</g>
</g>
<g id="Layer_5" display="none">
	<g id="Shape_28_copy_2_2_" display="inline">
		<g>
			<path fill-rule="evenodd" clip-rule="evenodd" fill="#127DB5" d="M28.328,4.436c-1.196,0-2.166,0.874-2.166,1.951
				c0,0.042,0.011,0.082,0.014,0.123l-6.254,3.853c-0.396-0.391-0.96-0.641-1.594-0.641c-0.076,0-0.147,0.013-0.221,0.02
				l-2.943-3.609c-0.307-0.338-0.891-0.285-1.375,0.073c-0.136,0.1-0.212,0.192-0.251,0.28l-6.305,4.317
				c-0.171-0.041-0.347-0.069-0.532-0.069c-1.151,0-2.085,0.841-2.085,1.878s0.934,1.878,2.085,1.878s2.085-0.841,2.085-1.878
				c0-0.272-0.067-0.529-0.183-0.763l5.764-3.947l2.061,2.853c-0.164,0.275-0.266,0.584-0.266,0.918c0,1.077,0.97,1.95,2.166,1.95
				c1.108,0,2.012-0.754,2.139-1.723l6.502-4.006c0.372,0.273,0.842,0.443,1.359,0.443c1.195,0,2.164-0.873,2.164-1.95
				S29.523,4.436,28.328,4.436z"/>
		</g>
	</g>
	<g id="Shape_28_6_" display="inline">
		<g>
			<path fill-rule="evenodd" clip-rule="evenodd" fill="#FFFFFF" d="M27.663,24.972H2.042V5.855c0-0.564-0.648-0.876-1.213-0.876
				c-0.564,0-0.84,0.312-0.84,0.876v19.552c0,0.564,0.567,1.022,1.132,1.022c0.048,0,0.086-0.021,0.131-0.027
				c0.195,0.345,0.482,0.622,0.807,0.622h25.603c0.589,0,1.065-0.901,1.065-1.489C28.729,24.946,28.252,24.972,27.663,24.972z
				 M27.5,10.793c-1.157,0-2.096,0.938-2.096,2.095c0,0.178,0.029,0.348,0.071,0.513l-5.615,3.492
				c-0.383-0.491-0.974-0.813-1.646-0.813c-0.157,0-0.309,0.021-0.455,0.053l-2.168-3.331c-0.277-0.337-0.907-0.306-1.344,0.053
				c-0.087,0.071-0.142,0.143-0.18,0.214l-6.332,4.276c-0.281-0.157-0.6-0.254-0.945-0.254c-1.077,0-1.95,0.873-1.95,1.95
				s0.873,1.951,1.95,1.951s1.951-0.874,1.951-1.951c0-0.099-0.015-0.192-0.029-0.287l6.088-4.113l1.613,2.478
				c-0.183,0.311-0.295,0.669-0.295,1.056c0,1.157,0.938,2.095,2.096,2.095c1.003,0,1.838-0.706,2.043-1.647l6.262-3.893
				c0.294,0.157,0.624,0.254,0.98,0.254c1.156,0,2.095-0.938,2.095-2.095S28.656,10.793,27.5,10.793z"/>
		</g>
	</g>
</g>
<g id="Layer_6" display="none">
	<g id="Shape_32_copy" display="inline">
		<g>
			<path fill-rule="evenodd" clip-rule="evenodd" fill="#127DB5" d="M23.33,3.396c0.063,0.833,0.052,1.63,0.007,2.313
				c4.102,2.988,5.843,8.477,3.879,13.403c-0.649,1.627-1.643,3.012-2.852,4.127c0.181,0.645,0.356,1.361,0.512,2.107
				c1.784-1.398,3.241-3.264,4.141-5.518C31.491,13.625,28.942,6.654,23.33,3.396z"/>
		</g>
	</g>
	<g id="Shape_32" display="inline">
		<g>
			<path fill-rule="evenodd" clip-rule="evenodd" fill="#52677E" d="M7.799,22.754c-2.591-2.082-4.21-5.235-4.105-8.719
				C3.875,8.008,9.124,3.258,15.395,3.447c1.294,0.039,2.526,0.295,3.675,0.714c0.144-0.125,0.737-0.639,1.592-1.381
				c-1.59-0.714-3.35-1.139-5.21-1.195C8.111,1.365,1.968,6.923,1.756,13.977C1.63,18.171,3.64,21.952,6.825,24.385
				C7.046,23.726,7.432,23.139,7.799,22.754z"/>
		</g>
	</g>
	<g display="inline">
		<path fill="#52677E" d="M13.586,29.95v-2.897c-1.664-0.029-3.385-0.545-4.389-1.262l0.688-1.923
			c1.033,0.688,2.524,1.233,4.131,1.233c2.037,0,3.414-1.176,3.414-2.811c0-1.578-1.119-2.554-3.242-3.414
			c-2.926-1.147-4.733-2.467-4.733-4.963c0-2.381,1.692-4.188,4.332-4.618V6.398h1.778v2.782c1.721,0.058,2.898,0.517,3.73,1.004
			l-0.718,1.893c-0.603-0.344-1.778-0.975-3.614-0.975c-2.209,0-3.041,1.319-3.041,2.467c0,1.492,1.062,2.238,3.557,3.27
			c2.955,1.205,4.447,2.697,4.447,5.25c0,2.266-1.578,4.389-4.533,4.877v2.983H13.586z"/>
	</g>
</g>
<g id="Layer_7" display="none">
	<g id="Shape_32_copy_2_" display="inline">
		<g>
			<path fill-rule="evenodd" clip-rule="evenodd" fill="#127DB5" d="M23.33,3.364c0.063,0.833,0.052,1.63,0.007,2.313
				c4.102,2.988,5.843,8.477,3.879,13.401c-0.649,1.627-1.643,3.012-2.852,4.127c0.181,0.645,0.356,1.361,0.512,2.109
				c1.784-1.4,3.241-3.264,4.141-5.518C31.491,13.593,28.942,6.623,23.33,3.364z"/>
		</g>
	</g>
	<g id="Shape_32_2_" display="inline">
		<g>
			<path fill-rule="evenodd" clip-rule="evenodd" fill="#FFFFFF" d="M7.799,22.723c-2.591-2.084-4.21-5.236-4.105-8.719
				C3.875,7.977,9.123,3.227,15.395,3.416c1.294,0.039,2.526,0.295,3.675,0.714c0.144-0.125,0.737-0.64,1.592-1.381
				c-1.59-0.714-3.35-1.139-5.21-1.195C8.111,1.333,1.968,6.892,1.756,13.946C1.63,18.139,3.64,21.92,6.825,24.352
				C7.045,23.693,7.432,23.105,7.799,22.723z"/>
		</g>
	</g>
	<g display="inline">
		<path fill="#FFFFFF" d="M13.586,29.919v-2.897c-1.664-0.029-3.385-0.545-4.389-1.262l0.688-1.923
			c1.033,0.688,2.524,1.233,4.131,1.233c2.037,0,3.414-1.176,3.414-2.811c0-1.578-1.119-2.554-3.242-3.414
			c-2.926-1.147-4.733-2.467-4.733-4.963c0-2.381,1.692-4.188,4.332-4.618V6.367h1.778v2.782c1.721,0.058,2.898,0.517,3.73,1.004
			l-0.718,1.893c-0.603-0.344-1.778-0.975-3.614-0.975c-2.209,0-3.041,1.319-3.041,2.467c0,1.492,1.062,2.238,3.557,3.27
			c2.955,1.205,4.447,2.697,4.447,5.25c0,2.266-1.578,4.389-4.533,4.877v2.983H13.586z"/>
	</g>
</g>
<g id="Layer_8" display="none">
	<g id="Shape_22_copy" display="inline">
		<g>
			<path fill-rule="evenodd" clip-rule="evenodd" fill="#52677E" d="M15.458,24.883c0.2,0.001,0.439-0.024,0.692-0.06
				c-0.014-0.152-0.043-0.301-0.043-0.457c0-1.762,0.912-3.283,2.245-4.098l0.614-1.435l0.337-2.94
				c-0.554-0.444-0.918-1.148-0.918-1.946c0-1.342,1.017-2.434,2.267-2.434s2.268,1.092,2.268,2.434
				c0,1.106-0.694,2.031-1.636,2.327l1.328,3.957c1.368,0.804,2.309,2.346,2.309,4.135c0,0.038-0.01,0.072-0.011,0.11
				c0.242,0.251,0.431,0.565,0.537,0.976c0.226,0.874,0.879,0.95,1.501,0.794c0.152-0.601,0.241-1.229,0.241-1.881
				c0-2.986-1.711-5.55-4.135-6.625c1.128-0.828,1.871-2.218,1.871-3.792c0-2.53-1.917-4.588-4.273-4.588
				c-2.355,0-4.272,2.058-4.272,4.588c0,1.532,0.709,2.882,1.786,3.716c-2.523,1.023-4.327,3.638-4.327,6.701
				c0,0.696,0.098,1.368,0.271,2.005C15.112,26.239,15.925,25.858,15.458,24.883z"/>
		</g>
	</g>
	<g id="Shape_78" display="inline">
		<g>
			<path fill-rule="evenodd" clip-rule="evenodd" fill="#52677E" d="M7.229,10.219c1.391-3.569,4.856-6.109,8.912-6.109
				c4.056,0,7.521,2.54,8.912,6.109h1.945c-1.469-4.598-5.778-7.938-10.857-7.938c-5.078,0-9.388,3.34-10.856,7.938H7.229z"/>
		</g>
	</g>
	<g id="Shape_34" display="inline">
		<g>
			<circle fill="#127DB5" cx="20.558" cy="23.55" r="2.652"/>
		</g>
	</g>
	<g id="Shape_22_copy_5" display="inline">
		<g>
			<path fill-rule="evenodd" clip-rule="evenodd" fill="#52677E" d="M2.727,25.935h2.218c-0.002-0.012-0.007-0.022-0.009-0.034
				h9.479l-0.189,0.034h1.068c0.007-0.066,0.02-0.131,0.025-0.197l-0.599,0.108c0.147-0.12,0.15-0.467,0.15-0.693
				c0-0.275-0.216-1.182-0.482-1.182H5.04c0.368-1.281,1.299-2.313,2.499-2.786v-3.785h0.337C7.359,17,7.021,16.369,7.021,15.653
				c0-1.206,0.949-2.188,2.116-2.188s2.117,0.981,2.117,2.188c0,0.716-0.339,1.347-0.855,1.746h0.299v2.179l0.845-0.396
				c-0.042-0.02-0.08-0.046-0.122-0.063c1.071-0.755,1.777-2.025,1.777-3.465c0-2.313-1.82-4.193-4.058-4.193
				s-4.058,1.881-4.058,4.193c0,1.4,0.673,2.634,1.697,3.396c-2.146,0.837-3.732,2.842-4.043,5.261
				c-0.119,0.287-0.197,0.676-0.197,0.841c0,0.144,0.061,0.339,0.155,0.494C2.7,25.744,2.716,25.839,2.727,25.935z"/>
		</g>
	</g>
</g>
<g id="Layer_9" display="none">
	<g id="Shape_22_copy_2_" display="inline">
		<g>
			<path fill-rule="evenodd" clip-rule="evenodd" fill="#FFFFFF" d="M15.494,24.883c0.2,0.001,0.439-0.024,0.692-0.06
				c-0.014-0.152-0.043-0.301-0.043-0.457c0-1.762,0.912-3.283,2.245-4.098l0.614-1.435l0.337-2.94
				c-0.554-0.444-0.918-1.148-0.918-1.946c0-1.342,1.017-2.434,2.267-2.434s2.268,1.092,2.268,2.434
				c0,1.106-0.694,2.031-1.636,2.327l1.328,3.957c1.368,0.804,2.309,2.346,2.309,4.135c0,0.038-0.01,0.072-0.011,0.11
				c0.242,0.251,0.431,0.565,0.537,0.976c0.226,0.874,0.879,0.95,1.501,0.794c0.152-0.601,0.241-1.229,0.241-1.881
				c0-2.986-1.711-5.55-4.135-6.625c1.128-0.828,1.871-2.218,1.871-3.792c0-2.53-1.917-4.588-4.273-4.588
				c-2.355,0-4.272,2.058-4.272,4.588c0,1.532,0.709,2.882,1.786,3.716c-2.523,1.023-4.327,3.638-4.327,6.701
				c0,0.696,0.098,1.368,0.271,2.005C15.148,26.239,15.961,25.858,15.494,24.883z"/>
		</g>
	</g>
	<g id="Shape_78_2_" display="inline">
		<g>
			<path fill-rule="evenodd" clip-rule="evenodd" fill="#FFFFFF" d="M7.265,10.219c1.391-3.569,4.856-6.109,8.912-6.109
				c4.056,0,7.521,2.54,8.912,6.109h1.945c-1.469-4.598-5.778-7.938-10.857-7.938c-5.078,0-9.388,3.34-10.856,7.938H7.265z"/>
		</g>
	</g>
	<g id="Shape_34_2_" display="inline">
		<g>
			<circle fill="#127DB5" cx="20.594" cy="23.55" r="2.652"/>
		</g>
	</g>
	<g id="Shape_22_copy_5_2_" display="inline">
		<g>
			<path fill-rule="evenodd" clip-rule="evenodd" fill="#FFFFFF" d="M2.763,25.935H4.98c-0.002-0.012-0.007-0.022-0.009-0.034h9.479
				l-0.189,0.034h1.068c0.007-0.066,0.02-0.131,0.025-0.197l-0.599,0.108c0.147-0.12,0.15-0.467,0.15-0.693
				c0-0.275-0.216-1.182-0.482-1.182H5.076c0.368-1.281,1.299-2.313,2.499-2.786v-3.785h0.337C7.396,17,7.057,16.369,7.057,15.653
				c0-1.206,0.949-2.188,2.116-2.188s2.117,0.981,2.117,2.188c0,0.716-0.339,1.347-0.855,1.746h0.299v2.179l0.845-0.396
				c-0.042-0.02-0.08-0.046-0.122-0.063c1.071-0.755,1.777-2.025,1.777-3.465c0-2.313-1.82-4.193-4.058-4.193
				s-4.058,1.881-4.058,4.193c0,1.4,0.673,2.634,1.697,3.396c-2.146,0.837-3.732,2.842-4.043,5.261
				c-0.119,0.287-0.197,0.676-0.197,0.841c0,0.144,0.061,0.339,0.155,0.494C2.736,25.744,2.752,25.839,2.763,25.935z"/>
		</g>
	</g>
</g>
<g id="Layer_10" display="none">
	<g id="Shape_36" display="inline">
		<g>
			<path fill-rule="evenodd" clip-rule="evenodd" fill="#52677E" d="M28.748,19.373c-0.124-0.155-0.207-0.172-0.279-0.123
				L17.085,5.073c0.081-0.597-0.347-1.023-0.991-1.173L5.47,1.353C4.786,1.194,4.125,1.408,3.949,2.06
				C3.612,2.25,3.402,2.629,3.35,3.077L2.215,13.585c-0.195,0.309-0.189,0.71,0.053,1.012c0.235,0.293,0.623,0.406,0.974,0.315
				c0.304,0.009,0.459-0.11,0.542-0.316L8.327,11.2c0.406-0.304,0.481-0.867,0.167-1.258S7.597,9.48,7.19,9.784l-3.085,2.307
				l0.953-8.823c0.007-0.058,0.014-0.114,0.021-0.17l10.047,2.409c0.021,0.043,0.026,0.093,0.058,0.132l12.022,14.974L16.451,28.65
				l-7.869-9.8l6.792-5.078l4.538,5.652c0.065,0.081,0.15,0.133,0.231,0.192L16.7,22.192l-2.754-3.431
				c-0.411-0.511-0.608-1.026-1.14-0.629c-0.531,0.396-0.629,1.134-0.219,1.645l2.84,3.538c-0.064,0.295,0.166,0.612,0.453,0.97
				c0.411,0.512,0.33,0.364,0.861-0.033l4.913-3.673c0.532-0.397,1.067-0.589,0.656-1.101c-0.131-0.162-0.303-0.267-0.485-0.342
				c-0.078-0.214-0.323-0.438-0.555-0.728l-4.599-5.729c0.022-0.11-0.008-0.234-0.132-0.389c-0.114-0.142-0.258-0.243-0.414-0.319
				c-0.209-0.251-0.413-0.37-0.751-0.116c-0.006,0.004-0.008,0.012-0.015,0.016c-0.185,0.033-0.366,0.094-0.525,0.213l-8.038,6.008
				c-0.444,0.332-0.298,0.689,0.001,1.096c0.041,0.143,0.107,0.28,0.207,0.404l8.219,10.236c0.331,0.412,0.889,0.536,1.372,0.365
				c0.28,0.052,0.545,0.031,0.734-0.11l11.548-8.632C29.41,21.056,29.158,19.884,28.748,19.373z"/>
		</g>
	</g>
	<g id="Shape_37" display="inline">
		<g>
			<path fill="#127DB5" d="M12.021,7.114C10.984,5.823,9.055,5.59,7.712,6.594C6.369,7.597,6.121,9.458,7.158,10.75
				c1.038,1.291,2.967,1.524,4.31,0.521S13.058,8.406,12.021,7.114z"/>
		</g>
	</g>
</g>
<g id="Layer_11" display="none">
	<g id="Shape_36_2_" display="inline">
		<g>
			<path fill-rule="evenodd" clip-rule="evenodd" fill="#FFFFFF" d="M28.748,19.373c-0.124-0.155-0.207-0.172-0.279-0.123
				L17.085,5.073c0.081-0.597-0.347-1.023-0.991-1.173L5.47,1.353C4.786,1.194,4.125,1.408,3.949,2.06
				C3.612,2.25,3.402,2.629,3.35,3.077L2.215,13.585c-0.195,0.309-0.189,0.71,0.053,1.012c0.235,0.293,0.623,0.406,0.974,0.315
				c0.304,0.009,0.459-0.11,0.542-0.316L8.327,11.2c0.406-0.304,0.481-0.867,0.167-1.258S7.597,9.48,7.19,9.784l-3.085,2.307
				l0.953-8.823c0.007-0.058,0.014-0.114,0.021-0.17l10.047,2.409c0.021,0.043,0.026,0.093,0.058,0.132l12.022,14.974L16.451,28.65
				l-7.869-9.8l6.792-5.078l4.538,5.652c0.065,0.081,0.15,0.133,0.231,0.192L16.7,22.192l-2.754-3.431
				c-0.411-0.511-0.608-1.026-1.14-0.629c-0.531,0.396-0.629,1.134-0.219,1.645l2.84,3.538c-0.064,0.295,0.166,0.612,0.453,0.97
				c0.411,0.512,0.33,0.364,0.861-0.033l4.913-3.673c0.532-0.397,1.067-0.589,0.656-1.101c-0.131-0.162-0.303-0.267-0.485-0.342
				c-0.078-0.214-0.323-0.438-0.555-0.728l-4.599-5.729c0.022-0.11-0.008-0.234-0.132-0.389c-0.114-0.142-0.258-0.243-0.414-0.319
				c-0.209-0.251-0.413-0.37-0.751-0.116c-0.006,0.004-0.008,0.012-0.015,0.016c-0.185,0.033-0.366,0.094-0.525,0.213l-8.038,6.008
				c-0.444,0.332-0.298,0.689,0.001,1.096c0.041,0.143,0.107,0.28,0.207,0.404l8.219,10.236c0.331,0.412,0.889,0.536,1.372,0.365
				c0.28,0.052,0.545,0.031,0.734-0.11l11.548-8.632C29.41,21.056,29.158,19.884,28.748,19.373z"/>
		</g>
	</g>
	<g id="Shape_37_2_" display="inline">
		<g>
			<path fill="#127DB5" d="M12.021,7.114C10.984,5.823,9.055,5.59,7.712,6.594C6.369,7.597,6.121,9.458,7.158,10.75
				c1.038,1.291,2.967,1.524,4.31,0.521S13.058,8.406,12.021,7.114z"/>
		</g>
	</g>
</g>
<g id="Layer_12" display="none">
	<g id="Shape_38" display="inline">
		<g>
			<path fill-rule="evenodd" clip-rule="evenodd" fill="#52677E" d="M29.354,12.015c-0.013-0.016-0.028-0.023-0.042-0.038
				c-0.01-0.015-0.012-0.032-0.022-0.046l-5.387-7.054c-0.011-0.015-0.028-0.021-0.04-0.035c-0.01-0.016-0.013-0.033-0.024-0.049
				c-0.318-0.417-0.93-0.508-1.364-0.201L6.877,15.581C6.722,15.69,6.627,15.84,6.563,16c-0.159-0.002-0.32,0.029-0.482,0.143
				c-0.483,0.34-0.402,0.861-0.048,1.325l2.822,3.695c0.354,0.464,0.848,0.694,1.331,0.354c0.482-0.34,0.402-0.861,0.048-1.325
				l-2.513-3.29L22.74,6.318l4.769,6.243L9.476,25.268c-0.003,0-0.007,0-0.01-0.001l-5.944-0.916
				c0.002-0.015,0.012-0.026,0.014-0.041l0.941-4.445c0.067-0.571-0.039-1.04-0.634-1.104c-0.595-0.065-1.132,0.346-1.199,0.917
				l-0.57,4.13c-0.083-0.009-0.146,0.038-0.18,0.207c-0.042,0.21-0.026,0.48,0.041,0.744c-0.015,0.176,0.016,0.309,0.147,0.389
				c0.139,0.279,0.338,0.503,0.595,0.551l6.425,1.306c0.26,0.049,0.529-0.092,0.76-0.308c0.188-0.007,0.375-0.049,0.538-0.163
				l18.655-13.145c0.001,0,0.001,0,0.002-0.001c0,0,0,0,0.001-0.001l0.086-0.061C29.578,13.019,29.672,12.432,29.354,12.015z"/>
		</g>
	</g>
	<g id="Shape_39" display="inline">
		<g>
			<polygon fill="#127DB5" points="20.836,7.554 19.263,8.662 23.495,14.205 25.068,13.096 			"/>
		</g>
	</g>
</g>
<g id="Layer_13" display="none">
	<g id="Shape_38_2_" display="inline">
		<g>
			<path fill-rule="evenodd" clip-rule="evenodd" fill="#FFFFFF" d="M29.354,12.015c-0.013-0.016-0.028-0.023-0.042-0.038
				c-0.01-0.015-0.012-0.032-0.022-0.046l-5.387-7.054c-0.011-0.015-0.028-0.021-0.04-0.035c-0.01-0.016-0.013-0.033-0.024-0.049
				c-0.318-0.417-0.93-0.508-1.364-0.201L6.877,15.581c-0.155,0.109-0.25,0.259-0.314,0.418c-0.159-0.001-0.32,0.029-0.482,0.144
				c-0.483,0.34-0.402,0.861-0.048,1.325l2.822,3.695c0.354,0.464,0.848,0.694,1.331,0.354c0.482-0.34,0.402-0.861,0.048-1.325
				l-2.513-3.29L22.74,6.318l4.769,6.243L9.476,25.268c-0.003,0-0.007,0-0.01-0.001l-5.944-0.916
				c0.002-0.015,0.012-0.026,0.014-0.041l0.941-4.445c0.067-0.571-0.039-1.04-0.634-1.104c-0.595-0.065-1.132,0.346-1.199,0.917
				l-0.57,4.13c-0.083-0.009-0.146,0.038-0.18,0.207c-0.042,0.21-0.026,0.48,0.041,0.744c-0.015,0.176,0.016,0.309,0.147,0.389
				c0.139,0.279,0.338,0.503,0.595,0.551l6.425,1.306c0.26,0.049,0.529-0.092,0.76-0.308c0.188-0.007,0.375-0.049,0.538-0.163
				l18.655-13.145c0.001,0,0.001,0,0.002-0.001c0,0,0,0,0.001-0.001l0.086-0.061C29.578,13.019,29.672,12.432,29.354,12.015z"/>
		</g>
	</g>
	<g id="Shape_39_2_" display="inline">
		<g>
			<polygon fill="#127DB5" points="20.836,7.554 19.263,8.662 23.495,14.205 25.068,13.096 			"/>
		</g>
	</g>
</g>
<g id="Layer_14">
	<g id="Shape_40" opacity="0.902">
		<g>
			<path fill-rule="evenodd" clip-rule="evenodd" fill="#52677E" d="M29.191,4.659c0.006-0.047,0.014-0.095,0.014-0.142
				c0-0.602-0.486-0.682-1.088-0.682h-6.926c-0.522,0-0.938,0.082-1.044,0.492c-0.383,0.164-0.575,0.579-0.575,1.075v1.463h-8.309
				c-0.601,0-1.088,0.178-1.088,0.779c0,0.601,0.487,1.06,1.088,1.06h9.245c0.175,0,0.333-0.048,0.479-0.117
				c0.038,0.003,0.077,0.011,0.114,0.011c0.478,0,0.475-0.291,0.443-0.704c0.021-0.082,0.051-0.16,0.051-0.249
				c0-0.132-0.032-0.236-0.075-0.33V5.771h6.098v20.07H3.587V11.778h13.116c0.601,0,1.088-0.344,1.088-0.945
				c0-0.601-0.487-0.962-1.088-0.962H2.63c-0.601,0-1.088,0.361-1.088,0.962c0,0.088,0.03,0.159,0.05,0.236
				c-0.02,0.082-0.05,0.161-0.05,0.249v14.723c0,0.518,0.37,0.932,0.855,1.041c0.211,0.41,0.51,0.747,0.845,0.747H28.34
				c0.294,0,0.447-0.263,0.53-0.604c0.425-0.123,0.626-0.622,0.626-1.115V5.268C29.496,5.039,29.372,4.83,29.191,4.659z"/>
		</g>
	</g>
	<g id="Shape_41">
		<g>
			<path fill-rule="evenodd" clip-rule="evenodd" fill="#127DB5" d="M21.561,16.846c-0.382-0.169-1.425-0.204-1.834-0.05h-0.182
				v-5.962c0-0.427-0.637-0.939-1.063-0.939c-0.428,0-0.998,0.513-0.998,0.939v6.168c-0.06,0.072-0.103,0.16-0.103,0.284
				c0,0.275,0.17,0.895,0.411,1.177l-1.942,1.72l-2.043-1.686c0.326-0.023,0.59-0.658,0.63-1.038c0.093-0.11,0.163-0.23,0.163-0.366
				v-2.724c0-0.427-0.578-0.773-1.004-0.773s-1.023,0.347-1.023,0.773v2.33h-2.271c-0.304,0-0.549,0.216-0.624,0.498
				c-0.084,0.192-0.06,0.411,0.05,0.595c0.111,0.346,0.325,0.71,0.574,0.71h0.2l4.581,3.867c0.171,0.18,0.419,0.232,0.644,0.172
				c0.224,0.061,0.472,0.008,0.644-0.172l4.307-3.665l0.568,0.021c0.362,0,0.656-1.076,0.656-1.438
				C21.9,17.04,21.76,16.909,21.561,16.846z"/>
		</g>
	</g>
	<g>
	</g>
	<g>
	</g>
	<g>
	</g>
	<g>
	</g>
	<g>
	</g>
	<g>
	</g>
	<g>
	</g>
	<g>
	</g>
	<g>
	</g>
	<g>
	</g>
	<g>
	</g>
	<g>
	</g>
	<g>
	</g>
	<g>
	</g>
	<g>
	</g>
</g>
</svg>
