<?xml version="1.0" encoding="utf-8"?>
<!-- Generator: Adobe Illustrator 16.0.3, SVG Export Plug-In . SVG Version: 6.00 Build 0)  -->
<!DOCTYPE svg PUBLIC "-//W3C//DTD SVG 1.1//EN" "http://www.w3.org/Graphics/SVG/1.1/DTD/svg11.dtd">
<svg version="1.1" id="Шар_1" xmlns="http://www.w3.org/2000/svg" xmlns:xlink="http://www.w3.org/1999/xlink" x="0px" y="0px"
	 width="31px" height="31px" viewBox="0 0 31 31" enable-background="new 0 0 31 31" xml:space="preserve">
<g id="Layer_4" display="none">
	<g id="Shape_28_2_" display="inline">
		<g>
			<path fill="#FFFFFF" d="M19.344,5.189c-0.025-0.296-0.17-0.158-0.586-0.158H2.338c-0.334,0-0.62-0.086-0.759,0.03
				c-0.363,0.03-0.636,0.142-0.636,0.544v14.229c0,0.537,0.487,0.973,1.024,0.973c0.029,0,0.055-0.015,0.083-0.018
				c0.157,0.098,0.332,0.169,0.531,0.169h9.131c0.559,0,1.012-0.442,1.012-1.002s-0.453-0.875-1.012-0.875H2.99V6.996h15.027v4.602
				c0,0.537-0.109,0.972,0.428,0.972s1.6-0.435,1.6-0.972V5.605C20.045,5.311,19.723,5.217,19.344,5.189z"/>
		</g>
	</g>
	<g id="Shape_28_copy_1_" display="inline">
		<g>
			<path fill="#127DB5" d="M30.005,24.594V12.199c0-0.208-0.089-0.391-0.212-0.548c-0.109-0.352-0.42-0.632-0.797-0.632H12.834
				c-0.47,0-0.85,0.429-0.85,0.897c0,0.47,0.38,1.041,0.85,1.041h15.105v11.02H13.988v-3.615c0-0.535-0.254-0.971-0.791-0.971
				c-0.537,0-1.171,0.436-1.171,0.971v4.621c0,0.449,0.445,0.824,0.905,0.935c0.115,0.065,0.239,0.108,0.37,0.108h15.729
				c0.56,0,1.013-0.705,1.013-1.264C30.042,24.695,30.018,24.648,30.005,24.594z"/>
		</g>
	</g>
</g>
<g id="Layer_2" display="none">
	<g id="Shape_28" display="inline">
		<g>
			<path fill="#52677E" d="M19.344,5.189c-0.025-0.296-0.17-0.158-0.586-0.158H2.338c-0.334,0-0.62-0.086-0.759,0.03
				c-0.363,0.03-0.636,0.142-0.636,0.544v14.229c0,0.537,0.487,0.973,1.024,0.973c0.029,0,0.055-0.015,0.083-0.018
				c0.157,0.098,0.332,0.169,0.531,0.169h9.131c0.559,0,1.012-0.442,1.012-1.002s-0.453-0.875-1.012-0.875H2.99V6.996h15.027v4.602
				c0,0.537-0.109,0.972,0.428,0.972s1.6-0.435,1.6-0.972V5.605C20.045,5.311,19.723,5.217,19.344,5.189z"/>
		</g>
	</g>
	<g id="Shape_28_copy" display="inline">
		<g>
			<path fill="#127DB5" d="M30.005,24.594V12.199c0-0.208-0.089-0.391-0.212-0.548c-0.109-0.352-0.42-0.632-0.797-0.632H12.834
				c-0.47,0-0.85,0.429-0.85,0.897c0,0.47,0.38,1.041,0.85,1.041h15.105v11.02H13.988v-3.615c0-0.535-0.254-0.971-0.791-0.971
				c-0.537,0-1.171,0.436-1.171,0.971v4.621c0,0.449,0.445,0.824,0.905,0.935c0.115,0.065,0.239,0.108,0.37,0.108h15.729
				c0.56,0,1.013-0.705,1.013-1.264C30.042,24.695,30.018,24.648,30.005,24.594z"/>
		</g>
	</g>
</g>
<g id="Layer_3" display="none">
	<g id="Shape_28_copy_2" display="inline">
		<g>
			<path fill="#127DB5" d="M28.328,4.436c-1.196,0-2.166,0.874-2.166,1.951c0,0.042,0.011,0.082,0.014,0.123l-6.254,3.853
				c-0.396-0.391-0.96-0.641-1.594-0.641c-0.076,0-0.146,0.013-0.221,0.02l-2.943-3.609c-0.307-0.338-0.891-0.285-1.375,0.073
				c-0.136,0.1-0.212,0.192-0.251,0.28l-6.305,4.317c-0.171-0.041-0.347-0.069-0.532-0.069c-1.151,0-2.085,0.841-2.085,1.878
				c0,1.037,0.934,1.878,2.085,1.878c1.151,0,2.085-0.841,2.085-1.878c0-0.272-0.067-0.529-0.183-0.763l5.764-3.947l2.061,2.853
				c-0.164,0.275-0.266,0.584-0.266,0.918c0,1.077,0.97,1.95,2.166,1.95c1.107,0,2.012-0.754,2.139-1.723l6.502-4.006
				c0.372,0.273,0.842,0.443,1.359,0.443c1.195,0,2.164-0.873,2.164-1.95C30.492,5.31,29.523,4.436,28.328,4.436z"/>
		</g>
	</g>
	<g id="Shape_28_4_" display="inline">
		<g>
			<path fill="#52677E" d="M27.663,24.973H2.042V5.855c0-0.564-0.648-0.876-1.213-0.876c-0.564,0-0.84,0.312-0.84,0.876v19.551
				c0,0.564,0.567,1.023,1.132,1.023c0.048,0,0.086-0.021,0.131-0.027c0.195,0.345,0.482,0.621,0.807,0.621h25.603
				c0.589,0,1.064-0.9,1.064-1.488C28.729,24.945,28.252,24.973,27.663,24.973z M27.5,10.793c-1.157,0-2.096,0.938-2.096,2.095
				c0,0.178,0.029,0.348,0.07,0.513l-5.615,3.492c-0.383-0.49-0.973-0.813-1.646-0.813c-0.157,0-0.31,0.021-0.455,0.053
				l-2.168-3.331c-0.277-0.337-0.907-0.306-1.344,0.053c-0.087,0.071-0.142,0.143-0.18,0.214l-6.332,4.277
				c-0.281-0.158-0.6-0.255-0.945-0.255c-1.077,0-1.95,0.873-1.95,1.95s0.873,1.951,1.95,1.951s1.951-0.874,1.951-1.951
				c0-0.1-0.015-0.191-0.029-0.287l6.088-4.113l1.613,2.478c-0.183,0.311-0.295,0.669-0.295,1.056c0,1.157,0.938,2.095,2.096,2.095
				c1.003,0,1.838-0.705,2.043-1.646l6.263-3.893c0.293,0.157,0.623,0.254,0.979,0.254c1.155,0,2.095-0.938,2.095-2.095
				C29.594,11.732,28.656,10.793,27.5,10.793z"/>
		</g>
	</g>
</g>
<g id="Layer_5" display="none">
	<g id="Shape_28_copy_2_2_" display="inline">
		<g>
			<path fill="#127DB5" d="M28.328,4.436c-1.196,0-2.166,0.874-2.166,1.951c0,0.042,0.011,0.082,0.014,0.123l-6.254,3.853
				c-0.396-0.391-0.96-0.641-1.594-0.641c-0.076,0-0.146,0.013-0.221,0.02l-2.943-3.609c-0.307-0.338-0.891-0.285-1.375,0.073
				c-0.136,0.1-0.212,0.192-0.251,0.28l-6.305,4.317c-0.171-0.041-0.347-0.069-0.532-0.069c-1.151,0-2.085,0.841-2.085,1.878
				c0,1.037,0.934,1.878,2.085,1.878c1.151,0,2.085-0.841,2.085-1.878c0-0.272-0.067-0.529-0.183-0.763l5.764-3.947l2.061,2.853
				c-0.164,0.275-0.266,0.584-0.266,0.918c0,1.077,0.97,1.95,2.166,1.95c1.107,0,2.012-0.754,2.139-1.723l6.502-4.006
				c0.372,0.273,0.842,0.443,1.359,0.443c1.195,0,2.164-0.873,2.164-1.95C30.492,5.31,29.523,4.436,28.328,4.436z"/>
		</g>
	</g>
	<g id="Shape_28_6_" display="inline">
		<g>
			<path fill="#FFFFFF" d="M27.663,24.973H2.042V5.855c0-0.564-0.648-0.876-1.213-0.876c-0.564,0-0.84,0.312-0.84,0.876v19.551
				c0,0.564,0.567,1.023,1.132,1.023c0.048,0,0.086-0.021,0.131-0.027c0.195,0.345,0.482,0.621,0.807,0.621h25.603
				c0.589,0,1.064-0.9,1.064-1.488C28.729,24.945,28.252,24.973,27.663,24.973z M27.5,10.793c-1.157,0-2.096,0.938-2.096,2.095
				c0,0.178,0.029,0.348,0.07,0.513l-5.615,3.492c-0.383-0.49-0.973-0.813-1.646-0.813c-0.157,0-0.31,0.021-0.455,0.053
				l-2.168-3.331c-0.277-0.337-0.907-0.306-1.344,0.053c-0.087,0.071-0.142,0.143-0.18,0.214l-6.332,4.277
				c-0.281-0.158-0.6-0.255-0.945-0.255c-1.077,0-1.95,0.873-1.95,1.95s0.873,1.951,1.95,1.951s1.951-0.874,1.951-1.951
				c0-0.1-0.015-0.191-0.029-0.287l6.088-4.113l1.613,2.478c-0.183,0.311-0.295,0.669-0.295,1.056c0,1.157,0.938,2.095,2.096,2.095
				c1.003,0,1.838-0.705,2.043-1.646l6.263-3.893c0.293,0.157,0.623,0.254,0.979,0.254c1.155,0,2.095-0.938,2.095-2.095
				C29.594,11.732,28.656,10.793,27.5,10.793z"/>
		</g>
	</g>
</g>
<g id="Layer_6" display="none">
	<g id="Shape_32_copy" display="inline">
		<g>
			<path fill="#127DB5" d="M23.33,3.396c0.063,0.833,0.052,1.63,0.007,2.313c4.103,2.988,5.843,8.477,3.879,13.402
				c-0.649,1.627-1.643,3.013-2.853,4.127c0.182,0.646,0.357,1.361,0.513,2.107c1.784-1.398,3.241-3.264,4.142-5.518
				C31.491,13.625,28.941,6.654,23.33,3.396z"/>
		</g>
	</g>
	<g id="Shape_32" display="inline">
		<g>
			<path fill="#52677E" d="M7.799,22.754c-2.591-2.082-4.21-5.234-4.105-8.719C3.875,8.008,9.124,3.258,15.395,3.447
				c1.294,0.039,2.526,0.295,3.675,0.714c0.144-0.125,0.736-0.639,1.592-1.381c-1.59-0.714-3.35-1.139-5.21-1.195
				C8.111,1.365,1.968,6.923,1.756,13.977C1.63,18.171,3.64,21.952,6.825,24.385C7.046,23.727,7.432,23.139,7.799,22.754z"/>
		</g>
	</g>
	<g display="inline">
		<path fill="#52677E" d="M13.586,29.95v-2.897c-1.664-0.029-3.385-0.545-4.389-1.262l0.688-1.923
			c1.033,0.688,2.524,1.233,4.131,1.233c2.037,0,3.414-1.177,3.414-2.812c0-1.578-1.119-2.554-3.242-3.414
			c-2.926-1.147-4.733-2.467-4.733-4.963c0-2.381,1.692-4.188,4.332-4.618V6.398h1.778V9.18c1.721,0.058,2.898,0.517,3.73,1.004
			l-0.718,1.893c-0.603-0.344-1.778-0.975-3.614-0.975c-2.209,0-3.041,1.319-3.041,2.467c0,1.492,1.062,2.238,3.557,3.27
			c2.955,1.205,4.447,2.697,4.447,5.25c0,2.267-1.578,4.39-4.533,4.877v2.983L13.586,29.95L13.586,29.95z"/>
	</g>
</g>
<g id="Layer_7" display="none">
	<g id="Shape_32_copy_2_" display="inline">
		<g>
			<path fill="#127DB5" d="M23.33,3.364c0.063,0.833,0.052,1.63,0.007,2.313c4.103,2.988,5.843,8.477,3.879,13.401
				c-0.649,1.627-1.643,3.012-2.853,4.127c0.182,0.645,0.357,1.361,0.513,2.109c1.784-1.4,3.241-3.265,4.142-5.519
				C31.491,13.593,28.941,6.623,23.33,3.364z"/>
		</g>
	</g>
	<g id="Shape_32_2_" display="inline">
		<g>
			<path fill="#FFFFFF" d="M7.799,22.723c-2.591-2.084-4.21-5.236-4.105-8.719C3.875,7.977,9.123,3.227,15.395,3.416
				c1.294,0.039,2.526,0.295,3.675,0.714c0.144-0.125,0.736-0.64,1.592-1.381c-1.59-0.714-3.35-1.139-5.21-1.195
				C8.111,1.333,1.968,6.892,1.756,13.946C1.63,18.139,3.64,21.92,6.825,24.352C7.045,23.693,7.432,23.105,7.799,22.723z"/>
		</g>
	</g>
	<g display="inline">
		<path fill="#FFFFFF" d="M13.586,29.919v-2.897c-1.664-0.028-3.385-0.545-4.389-1.262l0.688-1.923
			c1.033,0.688,2.524,1.233,4.131,1.233c2.037,0,3.414-1.176,3.414-2.812c0-1.577-1.119-2.554-3.242-3.413
			c-2.926-1.148-4.733-2.468-4.733-4.964c0-2.381,1.692-4.188,4.332-4.618V6.367h1.778v2.782c1.721,0.058,2.898,0.517,3.73,1.004
			l-0.718,1.893c-0.603-0.344-1.778-0.975-3.614-0.975c-2.209,0-3.041,1.319-3.041,2.467c0,1.492,1.062,2.238,3.557,3.271
			c2.955,1.205,4.447,2.696,4.447,5.25c0,2.266-1.578,4.389-4.533,4.877v2.982L13.586,29.919L13.586,29.919z"/>
	</g>
</g>
<g id="Layer_8" display="none">
	<g id="Shape_22_copy" display="inline">
		<g>
			<path fill="#52677E" d="M15.458,24.883c0.2,0.001,0.439-0.023,0.692-0.061c-0.014-0.151-0.043-0.301-0.043-0.456
				c0-1.763,0.912-3.283,2.244-4.099l0.614-1.435l0.337-2.94c-0.554-0.444-0.918-1.148-0.918-1.946c0-1.342,1.018-2.434,2.268-2.434
				s2.268,1.092,2.268,2.434c0,1.106-0.693,2.031-1.636,2.327l1.327,3.957c1.369,0.805,2.31,2.347,2.31,4.136
				c0,0.038-0.01,0.071-0.011,0.11c0.242,0.25,0.431,0.564,0.537,0.976c0.226,0.874,0.879,0.95,1.501,0.794
				c0.151-0.602,0.241-1.229,0.241-1.881c0-2.986-1.711-5.551-4.135-6.625c1.127-0.828,1.87-2.218,1.87-3.792
				c0-2.53-1.917-4.588-4.272-4.588s-4.272,2.058-4.272,4.588c0,1.532,0.709,2.882,1.786,3.716
				c-2.523,1.023-4.327,3.639-4.327,6.701c0,0.695,0.098,1.367,0.271,2.005C15.112,26.238,15.925,25.857,15.458,24.883z"/>
		</g>
	</g>
	<g id="Shape_78" display="inline">
		<g>
			<path fill="#52677E" d="M7.229,10.219C8.62,6.65,12.085,4.11,16.141,4.11c4.057,0,7.521,2.54,8.912,6.109h1.945
				c-1.469-4.598-5.777-7.938-10.857-7.938c-5.078,0-9.388,3.34-10.855,7.938H7.229z"/>
		</g>
	</g>
	<g id="Shape_34" display="inline">
		<g>
			<circle fill="#127DB5" cx="20.559" cy="23.55" r="2.652"/>
		</g>
	</g>
	<g id="Shape_22_copy_5" display="inline">
		<g>
			<path fill="#52677E" d="M2.727,25.936h2.218c-0.002-0.013-0.007-0.022-0.009-0.035h9.479l-0.189,0.035h1.068
				c0.007-0.066,0.02-0.131,0.025-0.197l-0.599,0.107c0.147-0.119,0.15-0.467,0.15-0.693c0-0.274-0.216-1.182-0.482-1.182H5.04
				c0.368-1.281,1.299-2.313,2.499-2.785V17.4h0.337c-0.517-0.4-0.855-1.031-0.855-1.748c0-1.206,0.949-2.188,2.116-2.188
				s2.117,0.981,2.117,2.188c0,0.716-0.339,1.347-0.855,1.746h0.299v2.18l0.845-0.396c-0.042-0.02-0.08-0.045-0.122-0.063
				c1.071-0.756,1.777-2.025,1.777-3.465c0-2.313-1.82-4.193-4.058-4.193c-2.238,0-4.058,1.881-4.058,4.193
				c0,1.401,0.673,2.634,1.697,3.396c-2.146,0.837-3.732,2.843-4.043,5.261c-0.119,0.287-0.197,0.676-0.197,0.842
				c0,0.144,0.061,0.339,0.155,0.494C2.7,25.744,2.716,25.839,2.727,25.936z"/>
		</g>
	</g>
</g>
<g id="Layer_9" display="none">
	<g id="Shape_22_copy_2_" display="inline">
		<g>
			<path fill="#FFFFFF" d="M15.494,24.883c0.2,0.001,0.439-0.023,0.691-0.061c-0.014-0.151-0.043-0.301-0.043-0.456
				c0-1.763,0.912-3.283,2.246-4.099l0.613-1.435l0.337-2.94c-0.554-0.444-0.918-1.148-0.918-1.946c0-1.342,1.017-2.434,2.267-2.434
				s2.269,1.092,2.269,2.434c0,1.106-0.694,2.031-1.636,2.327l1.328,3.957c1.367,0.805,2.309,2.347,2.309,4.136
				c0,0.038-0.01,0.071-0.012,0.11c0.242,0.25,0.432,0.564,0.537,0.976c0.227,0.874,0.879,0.95,1.502,0.794
				c0.152-0.602,0.24-1.229,0.24-1.881c0-2.986-1.711-5.551-4.135-6.625c1.128-0.828,1.871-2.218,1.871-3.792
				c0-2.53-1.917-4.588-4.273-4.588c-2.354,0-4.271,2.058-4.271,4.588c0,1.532,0.709,2.882,1.786,3.716
				c-2.523,1.023-4.327,3.639-4.327,6.701c0,0.695,0.098,1.367,0.271,2.005C15.148,26.238,15.961,25.857,15.494,24.883z"/>
		</g>
	</g>
	<g id="Shape_78_2_" display="inline">
		<g>
			<path fill="#FFFFFF" d="M7.265,10.219C8.656,6.65,12.121,4.11,16.177,4.11s7.521,2.54,8.912,6.109h1.945
				c-1.47-4.598-5.778-7.938-10.857-7.938c-5.078,0-9.388,3.34-10.856,7.938H7.265z"/>
		</g>
	</g>
	<g id="Shape_34_2_" display="inline">
		<g>
			<circle fill="#127DB5" cx="20.594" cy="23.55" r="2.652"/>
		</g>
	</g>
	<g id="Shape_22_copy_5_2_" display="inline">
		<g>
			<path fill="#FFFFFF" d="M2.763,25.936H4.98c-0.002-0.013-0.007-0.022-0.009-0.035h9.479l-0.189,0.035h1.068
				c0.007-0.066,0.02-0.131,0.025-0.197l-0.599,0.107c0.147-0.119,0.15-0.467,0.15-0.693c0-0.274-0.216-1.182-0.482-1.182H5.076
				c0.368-1.281,1.299-2.313,2.499-2.785V17.4h0.337c-0.516-0.4-0.855-1.031-0.855-1.748c0-1.206,0.949-2.188,2.116-2.188
				s2.117,0.981,2.117,2.188c0,0.716-0.339,1.347-0.855,1.746h0.299v2.18l0.845-0.396c-0.042-0.02-0.08-0.045-0.122-0.063
				c1.071-0.756,1.777-2.025,1.777-3.465c0-2.313-1.82-4.193-4.058-4.193c-2.238,0-4.058,1.881-4.058,4.193
				c0,1.401,0.673,2.634,1.697,3.396c-2.146,0.837-3.732,2.843-4.043,5.261c-0.119,0.287-0.197,0.676-0.197,0.842
				c0,0.144,0.061,0.339,0.155,0.494C2.736,25.744,2.752,25.839,2.763,25.936z"/>
		</g>
	</g>
</g>
<g id="Layer_10" display="none">
	<g id="Shape_36" display="inline">
		<g>
			<path fill="#52677E" d="M28.748,19.373c-0.124-0.154-0.207-0.172-0.279-0.123L17.085,5.073c0.081-0.597-0.347-1.023-0.991-1.173
				L5.47,1.353C4.786,1.194,4.125,1.408,3.949,2.06C3.612,2.25,3.402,2.629,3.35,3.077L2.215,13.585
				c-0.195,0.309-0.189,0.71,0.053,1.012c0.235,0.293,0.623,0.406,0.974,0.315c0.304,0.009,0.459-0.11,0.542-0.316L8.327,11.2
				c0.406-0.304,0.481-0.867,0.167-1.258C8.18,9.551,7.597,9.48,7.19,9.784l-3.085,2.307l0.953-8.823
				c0.007-0.058,0.014-0.114,0.021-0.17l10.047,2.409c0.021,0.043,0.026,0.093,0.058,0.132l12.022,14.974L16.451,28.65L8.582,18.85
				l6.792-5.078l4.538,5.652c0.064,0.081,0.15,0.133,0.23,0.191L16.7,22.191l-2.754-3.43c-0.411-0.512-0.608-1.027-1.14-0.63
				c-0.531,0.396-0.629,1.134-0.219,1.646l2.84,3.537c-0.064,0.295,0.166,0.613,0.453,0.971c0.411,0.512,0.33,0.363,0.861-0.033
				l4.913-3.673c0.531-0.397,1.066-0.589,0.656-1.101c-0.131-0.162-0.304-0.268-0.485-0.342c-0.078-0.215-0.323-0.439-0.556-0.729
				l-4.599-5.729c0.022-0.11-0.008-0.234-0.132-0.389c-0.114-0.142-0.258-0.243-0.414-0.319c-0.209-0.251-0.413-0.37-0.751-0.116
				c-0.006,0.004-0.008,0.012-0.015,0.016c-0.185,0.033-0.366,0.094-0.525,0.213l-8.038,6.008c-0.444,0.332-0.298,0.689,0.001,1.096
				c0.041,0.144,0.107,0.281,0.207,0.404l8.219,10.236c0.331,0.412,0.888,0.535,1.373,0.365c0.279,0.052,0.545,0.031,0.733-0.11
				l11.548-8.632C29.41,21.057,29.158,19.884,28.748,19.373z"/>
		</g>
	</g>
	<g id="Shape_37" display="inline">
		<g>
			<path fill="#127DB5" d="M12.021,7.114c-1.037-1.291-2.966-1.524-4.309-0.52C6.369,7.597,6.121,9.458,7.158,10.75
				c1.038,1.291,2.967,1.524,4.31,0.521C12.811,10.268,13.058,8.406,12.021,7.114z"/>
		</g>
	</g>
</g>
<g id="Layer_11" display="none">
	<g id="Shape_36_2_" display="inline">
		<g>
			<path fill="#FFFFFF" d="M28.748,19.373c-0.124-0.154-0.207-0.172-0.279-0.123L17.085,5.073c0.081-0.597-0.347-1.023-0.991-1.173
				L5.47,1.353C4.786,1.194,4.125,1.408,3.949,2.06C3.612,2.25,3.402,2.629,3.35,3.077L2.215,13.585
				c-0.195,0.309-0.189,0.71,0.053,1.012c0.235,0.293,0.623,0.406,0.974,0.315c0.304,0.009,0.459-0.11,0.542-0.316L8.327,11.2
				c0.406-0.304,0.481-0.867,0.167-1.258C8.18,9.551,7.597,9.48,7.19,9.784l-3.085,2.307l0.953-8.823
				c0.007-0.058,0.014-0.114,0.021-0.17l10.047,2.409c0.021,0.043,0.026,0.093,0.058,0.132l12.022,14.974L16.451,28.65L8.582,18.85
				l6.792-5.078l4.538,5.652c0.064,0.081,0.15,0.133,0.23,0.191L16.7,22.191l-2.754-3.43c-0.411-0.512-0.608-1.027-1.14-0.63
				c-0.531,0.396-0.629,1.134-0.219,1.646l2.84,3.537c-0.064,0.295,0.166,0.613,0.453,0.971c0.411,0.512,0.33,0.363,0.861-0.033
				l4.913-3.673c0.531-0.397,1.066-0.589,0.656-1.101c-0.131-0.162-0.304-0.268-0.485-0.342c-0.078-0.215-0.323-0.439-0.556-0.729
				l-4.599-5.729c0.022-0.11-0.008-0.234-0.132-0.389c-0.114-0.142-0.258-0.243-0.414-0.319c-0.209-0.251-0.413-0.37-0.751-0.116
				c-0.006,0.004-0.008,0.012-0.015,0.016c-0.185,0.033-0.366,0.094-0.525,0.213l-8.038,6.008c-0.444,0.332-0.298,0.689,0.001,1.096
				c0.041,0.144,0.107,0.281,0.207,0.404l8.219,10.236c0.331,0.412,0.888,0.535,1.373,0.365c0.279,0.052,0.545,0.031,0.733-0.11
				l11.548-8.632C29.41,21.057,29.158,19.884,28.748,19.373z"/>
		</g>
	</g>
	<g id="Shape_37_2_" display="inline">
		<g>
			<path fill="#127DB5" d="M12.021,7.114c-1.037-1.291-2.966-1.524-4.309-0.52C6.369,7.597,6.121,9.458,7.158,10.75
				c1.038,1.291,2.967,1.524,4.31,0.521C12.811,10.268,13.058,8.406,12.021,7.114z"/>
		</g>
	</g>
</g>
<g id="Layer_12" display="none">
	<g id="Shape_38" display="inline">
		<g>
			<path fill="#52677E" d="M29.354,12.015c-0.013-0.016-0.027-0.023-0.041-0.038c-0.011-0.015-0.013-0.032-0.022-0.046l-5.388-7.054
				c-0.01-0.015-0.027-0.021-0.039-0.035c-0.01-0.016-0.014-0.033-0.024-0.049c-0.317-0.417-0.93-0.508-1.364-0.201L6.877,15.581
				C6.722,15.69,6.627,15.84,6.563,16c-0.159-0.002-0.32,0.029-0.482,0.143c-0.483,0.34-0.402,0.861-0.048,1.326l2.822,3.694
				c0.354,0.464,0.848,0.694,1.331,0.354c0.482-0.34,0.402-0.861,0.048-1.326l-2.513-3.289L22.74,6.318l4.769,6.243L9.476,25.268
				c-0.003,0-0.007,0-0.01,0l-5.944-0.916c0.002-0.016,0.012-0.026,0.014-0.041l0.941-4.445c0.067-0.571-0.039-1.04-0.634-1.104
				c-0.595-0.066-1.132,0.346-1.199,0.916l-0.57,4.131c-0.083-0.01-0.146,0.037-0.18,0.207c-0.042,0.209-0.026,0.479,0.041,0.743
				c-0.015,0.177,0.016,0.31,0.147,0.39c0.139,0.279,0.338,0.502,0.595,0.551l6.425,1.306c0.26,0.05,0.529-0.092,0.76-0.308
				c0.188-0.008,0.375-0.049,0.538-0.163l18.655-13.145c0.002,0,0.002,0,0.002-0.001c0,0,0,0,0.002-0.001l0.086-0.061
				C29.578,13.019,29.672,12.432,29.354,12.015z"/>
		</g>
	</g>
	<g id="Shape_39" display="inline">
		<g>
			<polygon fill="#127DB5" points="20.836,7.554 19.264,8.662 23.495,14.205 25.068,13.096 			"/>
		</g>
	</g>
</g>
<g id="Layer_13" display="none">
	<g id="Shape_38_2_" display="inline">
		<g>
			<path fill="#FFFFFF" d="M29.354,12.015c-0.013-0.016-0.027-0.023-0.041-0.038c-0.011-0.015-0.013-0.032-0.022-0.046l-5.388-7.054
				c-0.01-0.015-0.027-0.021-0.039-0.035c-0.01-0.016-0.014-0.033-0.024-0.049c-0.317-0.417-0.93-0.508-1.364-0.201L6.877,15.581
				c-0.155,0.109-0.25,0.259-0.314,0.418c-0.159-0.001-0.32,0.028-0.482,0.144c-0.483,0.34-0.402,0.861-0.048,1.326l2.822,3.694
				c0.354,0.464,0.848,0.694,1.331,0.354c0.482-0.34,0.402-0.861,0.048-1.326l-2.513-3.289L22.74,6.318l4.769,6.243L9.476,25.268
				c-0.003,0-0.007,0-0.01,0l-5.944-0.916c0.002-0.016,0.012-0.026,0.014-0.041l0.941-4.445c0.067-0.571-0.039-1.04-0.634-1.104
				c-0.595-0.066-1.132,0.346-1.199,0.916l-0.57,4.131c-0.083-0.01-0.146,0.037-0.18,0.207c-0.042,0.209-0.026,0.479,0.041,0.743
				c-0.015,0.177,0.016,0.31,0.147,0.39c0.139,0.279,0.338,0.502,0.595,0.551l6.425,1.306c0.26,0.05,0.529-0.092,0.76-0.308
				c0.188-0.008,0.375-0.049,0.538-0.163l18.655-13.145c0.002,0,0.002,0,0.002-0.001c0,0,0,0,0.002-0.001l0.086-0.061
				C29.578,13.019,29.672,12.432,29.354,12.015z"/>
		</g>
	</g>
	<g id="Shape_39_2_" display="inline">
		<g>
			<polygon fill="#127DB5" points="20.836,7.554 19.264,8.662 23.495,14.205 25.068,13.096 			"/>
		</g>
	</g>
</g>
<g id="Layer_14" display="none">
	<g id="Shape_40" display="inline" opacity="0.902">
		<g>
			<path fill="#52677E" d="M29.191,4.659c0.006-0.047,0.014-0.095,0.014-0.142c0-0.602-0.486-0.682-1.088-0.682h-6.926
				c-0.522,0-0.938,0.082-1.045,0.492c-0.383,0.164-0.574,0.579-0.574,1.075v1.463h-8.309c-0.601,0-1.088,0.178-1.088,0.779
				s0.487,1.06,1.088,1.06h9.245c0.176,0,0.333-0.048,0.479-0.117c0.039,0.003,0.078,0.011,0.115,0.011
				c0.478,0,0.475-0.291,0.442-0.704c0.021-0.082,0.052-0.16,0.052-0.249c0-0.132-0.033-0.236-0.076-0.33V5.771h6.099v20.07H3.587
				V11.778h13.116c0.602,0,1.088-0.344,1.088-0.945s-0.486-0.962-1.088-0.962H2.63c-0.601,0-1.088,0.361-1.088,0.962
				c0,0.088,0.03,0.159,0.05,0.236c-0.02,0.082-0.05,0.161-0.05,0.249v14.723c0,0.518,0.37,0.932,0.855,1.041
				c0.211,0.41,0.51,0.747,0.845,0.747H28.34c0.294,0,0.447-0.263,0.53-0.604c0.425-0.123,0.626-0.621,0.626-1.115V5.268
				C29.496,5.039,29.372,4.83,29.191,4.659z"/>
		</g>
	</g>
	<g id="Shape_41" display="inline">
		<g>
			<path fill="#127DB5" d="M21.561,16.846c-0.381-0.168-1.424-0.203-1.834-0.05h-0.182v-5.962c0-0.427-0.637-0.939-1.063-0.939
				c-0.428,0-0.998,0.513-0.998,0.939v6.168c-0.061,0.072-0.104,0.16-0.104,0.284c0,0.274,0.17,0.896,0.411,1.177l-1.942,1.721
				l-2.043-1.687c0.326-0.022,0.59-0.658,0.63-1.038c0.093-0.109,0.163-0.23,0.163-0.365v-2.725c0-0.427-0.578-0.773-1.004-0.773
				c-0.426,0-1.023,0.347-1.023,0.773v2.33h-2.271c-0.304,0-0.549,0.216-0.624,0.498c-0.084,0.191-0.06,0.41,0.05,0.595
				c0.111,0.347,0.325,0.71,0.574,0.71h0.2l4.581,3.867c0.171,0.18,0.419,0.232,0.644,0.172c0.224,0.061,0.472,0.008,0.644-0.172
				l4.307-3.665l0.568,0.021c0.361,0,0.656-1.076,0.656-1.438C21.9,17.04,21.76,16.909,21.561,16.846z"/>
		</g>
	</g>
</g>
<g id="Layer_15" display="none">
	<g id="Shape_40_2_" display="inline" opacity="0.902">
		<g>
			<path fill="#FFFFFF" d="M29.2,4.588c0.006-0.047,0.014-0.095,0.014-0.142c0-0.602-0.487-0.682-1.088-0.682h-6.927
				c-0.522,0-0.938,0.082-1.043,0.492C19.771,4.42,19.58,4.835,19.58,5.332v1.463h-8.308c-0.601,0-1.088,0.178-1.088,0.779
				c0,0.601,0.487,1.06,1.088,1.06h9.246c0.174,0,0.334-0.048,0.479-0.117c0.039,0.003,0.078,0.011,0.114,0.011
				c0.478,0,0.476-0.289,0.443-0.701c0.021-0.083,0.051-0.162,0.051-0.252c0-0.134-0.031-0.239-0.076-0.334V5.7h6.099V25.77H3.595
				V11.707h13.116c0.602,0,1.088-0.344,1.088-0.945c0-0.601-0.486-0.962-1.088-0.962H2.639c-0.601,0-1.088,0.361-1.088,0.962
				c0,0.088,0.03,0.159,0.05,0.236c-0.02,0.082-0.05,0.161-0.05,0.249v14.724c0,0.518,0.37,0.932,0.855,1.041
				c0.211,0.409,0.51,0.746,0.845,0.746h25.097c0.295,0,0.447-0.264,0.531-0.605c0.426-0.121,0.626-0.621,0.626-1.113V5.196
				C29.505,4.967,29.381,4.758,29.2,4.588z"/>
		</g>
	</g>
	<g id="Shape_41_2_" display="inline">
		<g>
			<path fill="#127DB5" d="M21.568,16.773c-0.383-0.168-1.426-0.203-1.834-0.049h-0.183v-5.962c0-0.427-0.636-0.939-1.063-0.939
				c-0.426,0-0.997,0.513-0.997,0.939v6.167c-0.06,0.073-0.103,0.161-0.103,0.284c0,0.274,0.17,0.896,0.41,1.177l-1.942,1.721
				l-2.043-1.687c0.326-0.022,0.59-0.657,0.631-1.038c0.093-0.109,0.163-0.23,0.163-0.365v-2.725c0-0.427-0.578-0.773-1.004-0.773
				s-1.023,0.347-1.023,0.773v2.33H10.31c-0.304,0-0.549,0.217-0.624,0.498c-0.083,0.191-0.06,0.411,0.05,0.596
				c0.111,0.346,0.325,0.709,0.574,0.709h0.2l4.581,3.867c0.171,0.182,0.419,0.232,0.644,0.172c0.225,0.061,0.473,0.01,0.645-0.172
				l4.306-3.665l0.568,0.021c0.363,0,0.656-1.075,0.656-1.438C21.908,16.969,21.768,16.837,21.568,16.773z"/>
		</g>
	</g>
</g>
<g id="Layer_16">
	<g id="Shape_42">
		<g>
			<path fill="#52677E" d="M29.965,28.133v-7.66c0-0.522-0.994-0.947-1.518-0.947s-0.643,0.425-0.643,0.947v7.52H17.02V9.951h7.066
				l3.708,5.04h-2.798v-2.774c0-0.485-0.578-0.879-1.064-0.879c-0.484,0-0.879,0.394-0.879,0.879v3.654
				c0,0.357,0.217,0.664,0.524,0.801c0.147,0.15,0.323,0.264,0.524,0.264h5.143c0.402,0,0.729-0.397,0.832-0.811
				c0.007-0.005,0.018-0.006,0.023-0.012c0.418-0.316,0.336-0.787,0.02-1.204l-3.938-6.13c-0.063-0.082-0.133-0.147-0.203-0.21
				c-0.17-0.279-0.439-0.493-0.761-0.493h-9.405c-0.523,0-0.947,0.548-0.947,1.071c0,0.176,0.061,0.313,0.145,0.434
				c-0.002,0.045-0.01,0.085-0.01,0.133v18.54c-0.078,0.096-0.135,0.21-0.135,0.381c0,0.521,0.424,1.375,0.947,1.375h13.464
				c0.522,0,0.947-0.854,0.947-1.375C30.225,28.384,30.123,28.229,29.965,28.133z"/>
		</g>
	</g>
	<g id="Shape_42_copy">
		<g>
			<path fill="#52677E" d="M16.157,2.146c-0.172-0.103-0.413-0.138-0.683-0.138H2.01c-0.523,0-0.948,0.119-0.948,0.643
				c0,0.067,0.007,0.138,0.021,0.21c-0.033,0.11-0.051,0.23-0.051,0.356v19.758c0,0.522,0.286,0.947,0.809,0.947
				c0.051,0,0.102-0.021,0.152-0.027c0.006,0,0.011,0.002,0.017,0.002h13.464c0.523,0,0.947-0.424,0.947-0.946
				s-0.424-0.978-0.947-0.978H2.955V3.932h12.046v1.857c0,0.523,0.12,0.947,0.643,0.947s1.28-0.424,1.28-0.947V2.981
				C16.924,2.617,16.557,2.305,16.157,2.146z"/>
		</g>
	</g>
	<g id="Shape_43_copy">
		<g>
			<path fill="#127DB5" d="M5.057,7.039v1.957h7.808V7.039H5.057z M5.057,11.91h7.808V9.953H5.057V11.91z M5.057,14.991h7.808
				v-1.957H5.057V14.991z"/>
		</g>
	</g>
	<g id="Shape_43">
		<g>
			<path fill-rule="evenodd" clip-rule="evenodd" fill="#52677E" d="M19.027,19.051v1.957h6.975v-1.957H19.027z M19.027,23.923
				h6.975v-1.957h-6.975V23.923z"/>
		</g>
	</g>
</g>
</svg>
