<?xml version="1.0" standalone="no"?>
<!-- Generator: Adobe Fireworks 10, Export SVG Extension by Aaron Beall (http://fireworks.abeall.com) . Version: 0.6.0  -->
<!DOCTYPE svg PUBLIC "-//W3C//DTD SVG 1.1//EN" "http://www.w3.org/Graphics/SVG/1.1/DTD/svg11.dtd">
<svg id="" viewBox="0 0 27 20" style="background-color:#ffffff00" version="1.1"
	xmlns="http://www.w3.org/2000/svg" xmlns:xlink="http://www.w3.org/1999/xlink" xml:space="preserve"
	x="0px" y="0px" width="27px" height="20px"
>
	<g id="Layer%201">
		<path id="%24" d="M 26.293 12.8926 C 25.8176 12.3652 24.9614 11.864 23.7245 11.3887 L 22.9823 11.1055 L 22.9823 7.5508 C 23.9915 7.6289 25.0071 7.8698 26.0292 8.2734 L 26.7422 6.4863 C 25.5571 5.998 24.304 5.7311 22.9823 5.6855 L 22.9823 4.0742 L 21.6835 4.0742 L 21.6835 5.7148 C 20.4856 5.8386 19.5366 6.1901 18.8368 6.7695 C 18.137 7.3491 17.7871 8.0879 17.7871 8.9863 C 17.7871 9.8262 18.0327 10.5309 18.5244 11.1006 C 19.0159 11.6703 19.7954 12.1602 20.8633 12.5703 L 21.6835 12.873 L 21.6835 16.5254 C 21.0911 16.519 20.4204 16.4229 19.6719 16.2373 C 18.9231 16.0518 14.675 13.8743 14.1151 13.6009 L 14.1047 16.8073 C 15.1399 17.276 20.0688 18.6381 21.6835 18.6641 L 21.6835 20.4121 L 22.9823 20.4121 L 22.9823 18.293 C 24.2844 18.1498 25.2804 17.7722 25.9706 17.1602 C 26.6606 16.5483 27.0059 15.7702 27.0059 14.8262 C 27.0059 14.0645 26.7681 13.4199 26.293 12.8926 ZM 22.9823 16.4473 L 22.9823 13.332 C 23.6008 13.56 24.0419 13.7959 24.3057 14.04 C 24.5692 14.2842 24.701 14.5952 24.701 14.9727 C 24.701 15.78 24.1282 16.2715 22.9823 16.4473 L 22.9823 16.4473 ZM 20.4922 8.0684 C 20.7655 7.8276 21.1626 7.668 21.6835 7.5898 L 21.6835 10.627 C 21.0781 10.3862 20.6597 10.142 20.4286 9.8945 C 20.1974 9.6472 20.082 9.3379 20.082 8.9668 C 20.082 8.6088 20.2186 8.3093 20.4922 8.0684 Z" fill="#edf3f7"/>
		<path id="Shape%2042%20copy%202" d="M 15.7623 7.3565 C 15.8601 7.5023 15.9294 7.6693 15.9294 7.8478 C 15.9294 8.2953 15.5667 9.002 15.1191 9.002 L 10.3824 9.002 C 10.282 9.002 10.1879 8.9568 10.099 8.8964 C 9.6425 8.8404 8.979 8.5061 8.979 8.0978 L 8.979 5.1488 C 8.979 4.7014 9.7791 4.3386 10.2266 4.3386 C 10.6741 4.3386 10.9434 4.7014 10.9434 5.1488 L 10.9434 6.9751 L 13.5562 6.9751 L 10.3368 1.9641 L 1.9642 1.9641 L 1.9642 18.012 L 14.0266 18.012 L 14.0266 15.3984 C 14.0266 14.9165 14.4492 14.5258 14.9312 14.5258 C 15.4131 14.5258 15.9912 14.9165 15.9912 15.3984 L 15.9912 18.9308 C 16.0012 18.9889 16.0229 19.0482 16.0229 19.104 C 16.0229 19.5859 15.6323 19.9974 15.1504 19.9974 L 1.0424 19.9974 C 1.0378 19.9974 1.0338 19.9999 1.0292 19.9999 C 1.0247 19.9999 1.02 19.9974 1.0154 19.9974 L 0.7474 19.9974 C 0.2655 19.9974 -0.1251 19.5859 -0.1251 19.104 C -0.1251 18.9474 -0.0728 18.7826 -0.0005 18.6242 L -0.0005 1.6761 C -0.0005 1.6463 0.0186 1.6212 0.0226 1.5922 C -0.0629 1.4675 -0.1251 1.3256 -0.1251 1.1541 C -0.1251 0.6722 0.2655 0.0203 0.7474 0.0203 L 11.4109 0.0203 C 11.7603 0.0203 12.0568 0.3649 12.1962 0.7371 C 12.2274 0.7653 12.2736 0.7839 12.2979 0.8159 L 15.9254 6.4621 C 16.1382 6.7416 15.9998 7.0798 15.7623 7.3565 Z" fill="#edf3f7"/>
		<path id="Shape%2043%20copy%202" d="M 4.0205 16.0146 L 4.0205 14.9562 L 12.0017 14.9562 L 12.0017 16.0146 L 4.0205 16.0146 ZM 4.0205 12.9563 L 12.0017 12.9563 L 12.0017 14.0146 L 4.0205 14.0146 L 4.0205 12.9563 ZM 4.0205 10.9646 L 12.0017 10.9646 L 12.0017 12.0229 L 4.0205 12.0229 L 4.0205 10.9646 Z" fill="#117db5"/>
	</g>
</svg>