<?xml version="1.0" standalone="no"?>
<!-- Generator: Adobe Fireworks 10, Export SVG Extension by Aaron Beall (http://fireworks.abeall.com) . Version: 0.6.0  -->
<!DOCTYPE svg PUBLIC "-//W3C//DTD SVG 1.1//EN" "http://www.w3.org/Graphics/SVG/1.1/DTD/svg11.dtd">
<svg id="" viewBox="0 0 27 20" style="background-color:#ffffff00" version="1.1"
	xmlns="http://www.w3.org/2000/svg" xmlns:xlink="http://www.w3.org/1999/xlink" xml:space="preserve"
	x="0px" y="0px" width="27px" height="20px"
>
	<g id="Layer%201">
		<path id="Shape%2022%20copy%202" d="M -0.0026 20.0576 C -0.0243 19.9599 -0.0487 19.8582 -0.0487 19.7854 C -0.0487 19.5477 0.0735 18.9129 0.2594 18.4543 C 0.7736 15.1041 3.144 12.3391 6.3223 11.174 C 4.7854 10.0984 3.7737 8.3569 3.7737 6.3814 C 3.7737 3.118 6.5085 0.4631 9.8701 0.4631 C 13.2316 0.4631 15.9663 3.118 15.9663 6.3814 C 15.9663 8.4119 14.9059 10.2051 13.2961 11.2715 C 13.3594 11.2968 13.4159 11.3337 13.4784 11.3603 L 12.2097 11.918 L 12.2097 10.1067 C 13.5048 9.3391 14.3728 7.9583 14.3728 6.3802 C 14.3728 3.9692 12.3522 2.0076 9.8685 2.0076 C 7.385 2.0076 5.3645 3.9692 5.3645 6.3802 C 5.3645 7.9314 6.2053 9.2872 7.4646 10.0602 L 7.4646 12.399 C 4.7566 13.159 2.6593 15.2798 1.9673 17.9417 L 18.6025 17.9417 C 19.0029 17.9417 19.3274 19.3967 19.3274 19.7854 C 19.3274 19.8601 19.3102 19.9563 19.2859 20.0576 L -0.0026 20.0576 Z" fill="#edf3f7"/>
		<path id="Shape%2056" d="M 25.5 10.4999 L 18.0714 10.4999 C 17.4796 10.4999 16.9999 10.1631 16.9999 9.5714 C 16.9999 8.9796 17.4796 8.5 18.0714 8.5 L 25.5 8.5 C 26.0917 8.5 26.5713 8.9796 26.5713 9.5714 C 26.5713 10.1631 26.0917 10.4999 25.5 10.4999 ZM 18.0714 11.5 L 23.4686 11.5 C 24.0604 11.5 24.5402 11.9797 24.5402 12.5714 C 24.5402 13.1631 24.0604 13.5 23.4686 13.5 L 18.0714 13.5 C 17.4796 13.5 16.9999 13.1631 16.9999 12.5714 C 16.9999 11.9797 17.4796 11.5 18.0714 11.5 ZM 18.0714 14.5 L 25.5 14.5 C 26.0917 14.5 26.5713 14.9797 26.5713 15.5714 C 26.5713 16.1631 26.0917 16.5 25.5 16.5 L 18.0714 16.5 C 17.4796 16.5 16.9999 16.1631 16.9999 15.5714 C 16.9999 14.9797 17.4796 14.5 18.0714 14.5 Z" fill="#117db5"/>
	</g>
</svg>