<?xml version="1.0" standalone="no"?>
<!-- Generator: Adobe Fireworks 10, Export SVG Extension by Aaron Beall (http://fireworks.abeall.com) . Version: 0.6.0  -->
<!DOCTYPE svg PUBLIC "-//W3C//DTD SVG 1.1//EN" "http://www.w3.org/Graphics/SVG/1.1/DTD/svg11.dtd">
<svg id="" viewBox="0 0 10 18" style="background-color:#ffffff00" version="1.1"
	xmlns="http://www.w3.org/2000/svg" xmlns:xlink="http://www.w3.org/1999/xlink" xml:space="preserve"
	x="0px" y="0px" width="10px" height="18px"
>
	<path id="Shape%2079" d="M 8.4805 17.9533 L 1.5193 17.9533 C 0.6953 17.9533 0.0272 17.2853 0.0272 16.4611 L 0.0272 1.5388 C 0.0272 0.7147 0.6953 0.0466 1.5193 0.0466 L 8.4805 0.0466 C 9.3046 0.0466 9.9728 0.7147 9.9728 1.5388 L 9.9728 16.4611 C 9.9728 17.2853 9.3046 17.9533 8.4805 17.9533 ZM 5.2176 17.3938 C 5.749 17.3938 6.1813 16.9614 6.1813 16.43 C 6.1813 15.8986 5.749 15.4663 5.2176 15.4663 C 4.6862 15.4663 4.2538 15.8986 4.2538 16.43 C 4.2538 16.9614 4.6862 17.3938 5.2176 17.3938 ZM 9.1016 2.0349 L 0.8983 2.0349 L 0.8983 14.9689 L 9.1016 14.9689 L 9.1016 2.0349 Z" fill="#117db5"/>
</svg>