<?xml version="1.0" encoding="utf-8"?>
<!-- Generator: Adobe Illustrator 16.0.2, SVG Export Plug-In . SVG Version: 6.00 Build 0)  -->
<!DOCTYPE svg PUBLIC "-//W3C//DTD SVG 1.1//EN" "http://www.w3.org/Graphics/SVG/1.1/DTD/svg11.dtd">
<svg version="1.1" id="Layer_1" xmlns="http://www.w3.org/2000/svg" xmlns:xlink="http://www.w3.org/1999/xlink" x="0px" y="0px"
	 width="27px" height="22px" viewBox="0 0 27 22" enable-background="new 0 0 27 22" xml:space="preserve">
<g id="Shape_62">
	<g>
		<path fill-rule="evenodd" clip-rule="evenodd" fill="#EDF3F8" d="M13.157,0.542c-2.908,0-5.311,2.179-5.675,4.99l2.543,1.386
			C9.981,6.708,9.958,6.492,9.958,6.27c0-1.763,1.435-3.197,3.197-3.197c1.764,0,3.198,1.435,3.198,3.197
			c0,1.535-1.087,2.818-2.531,3.126l-0.026,0.846c-0.099,0.156-0.16,0.327-0.16,0.508v4.375c0,0.69,0.852,0,1.542,0
			c0.312,0,0.431,0.138,0.473,0.229c-0.007-0.048-0.014-0.114-0.014-0.229v-3.702c1.918-0.927,3.25-2.883,3.25-5.152
			C18.887,3.111,16.316,0.542,13.157,0.542z"/>
	</g>
</g>
<g id="Shape_63">
	<g>
		<circle fill="#127DB5" cx="14.793" cy="18.844" r="2.219"/>
	</g>
</g>
</svg>
