<?xml version="1.0" standalone="no"?>
<!-- Generator: Adobe Fireworks 10, Export SVG Extension by Aaron Beall (http://fireworks.abeall.com) . Version: 0.6.0  -->
<!DOCTYPE svg PUBLIC "-//W3C//DTD SVG 1.1//EN" "http://www.w3.org/Graphics/SVG/1.1/DTD/svg11.dtd">
<svg id="" viewBox="0 0 24 22" style="background-color:#ffffff00" version="1.1"
	xmlns="http://www.w3.org/2000/svg" xmlns:xlink="http://www.w3.org/1999/xlink" xml:space="preserve"
	x="0px" y="0px" width="24px" height="22px"
>
	<g id="Layer%201">
		<path id="Shape%2042%20copy%203" d="M 23.1006 8.114 C 23.0939 8.119 23.0829 8.1196 23.076 8.1245 C 22.9718 8.5372 22.6465 8.9346 22.2436 8.9346 L 17.1014 8.9346 C 16.9006 8.9346 16.7244 8.8224 16.5763 8.6722 C 16.2687 8.5352 16.0527 8.2293 16.0527 7.8708 L 16.0527 4.2171 C 16.0527 3.7313 16.4464 3.3375 16.9322 3.3375 C 17.418 3.3375 17.9961 3.7313 17.9961 4.2171 L 17.9961 6.9912 L 20.7937 6.9912 L 17.086 1.9514 L 10.0195 1.9514 L 10.0195 5.6666 L 8.001 5.6666 L 8.001 1.7136 C 8.001 1.6666 8.0085 1.6262 8.0107 1.581 C 7.9268 1.4612 7.8656 1.3233 7.8656 1.147 C 7.8656 0.6238 8.2897 0.0756 8.813 0.0756 L 18.2178 0.0756 C 18.5385 0.0756 18.808 0.2905 18.9793 0.5704 C 19.0492 0.6332 19.1187 0.6983 19.1808 0.7797 L 23.119 6.9094 C 23.4359 7.3256 23.5168 7.7971 23.1006 8.114 ZM 8.001 12.3333 L 10.0195 12.3333 L 10.0195 19.9907 L 20.8039 19.9907 L 20.8039 12.4719 C 20.8039 11.9486 20.9236 11.5245 21.4467 11.5245 C 21.9698 11.5245 22.9654 11.9486 22.9654 12.4719 L 22.9654 20.1333 C 23.1235 20.23 23.2248 20.3835 23.2248 20.6335 C 23.2248 21.1566 22.8007 22.0093 22.2775 22.0093 L 8.813 22.0093 C 8.2897 22.0093 7.8656 21.1566 7.8656 20.6335 C 7.8656 20.4634 7.9225 20.3478 8.001 20.2534 L 8.001 12.3333 Z" fill="#51677d"/>
		<path id="Shape%2086" d="M 9.4717 10.028 L 5.9998 10.028 L 5.9998 13.2999 C 5.9998 13.9074 5.5074 14.3999 4.8998 14.3999 C 4.2924 14.3999 3.9665 13.9074 3.9665 13.2999 L 3.9665 10.028 L 0.8717 10.028 C 0.2642 10.028 -0.2282 9.5355 -0.2282 8.928 C -0.2282 8.3205 0.2642 7.9947 0.8717 7.9947 L 3.9665 7.9947 L 3.9665 4.6999 C 3.9665 4.0924 4.2924 3.5999 4.8998 3.5999 C 5.5074 3.5999 5.9998 4.0924 5.9998 4.6999 L 5.9998 7.9947 L 9.4717 7.9947 C 10.0793 7.9947 10.5717 8.3205 10.5717 8.928 C 10.5717 9.5355 10.0793 10.028 9.4717 10.028 Z" fill="#117db5"/>
	</g>
</svg>