<?xml version="1.0" standalone="no"?>
<!-- Generator: Adobe Fireworks 10, Export SVG Extension by Aaron Beall (http://fireworks.abeall.com) . Version: 0.6.0  -->
<!DOCTYPE svg PUBLIC "-//W3C//DTD SVG 1.1//EN" "http://www.w3.org/Graphics/SVG/1.1/DTD/svg11.dtd">
<svg id="" viewBox="0 0 14 18" style="background-color:#ffffff00" version="1.1"
	xmlns="http://www.w3.org/2000/svg" xmlns:xlink="http://www.w3.org/1999/xlink" xml:space="preserve"
	x="0px" y="0px" width="14px" height="18px"
>
	<path id="Shape%2072" d="M 12.806 17.9918 L 1.1589 17.9918 C 0.5355 17.9918 0.0302 17.4865 0.0302 16.8631 L 0.0302 1.0804 C 0.0302 0.457 0.5355 -0.0483 1.1589 -0.0483 L 12.806 -0.0483 C 13.4294 -0.0483 13.9347 0.457 13.9347 1.0804 L 13.9347 16.8631 C 13.9347 17.4865 13.4294 17.9918 12.806 17.9918 ZM 6.3265 17.578 C 6.6694 17.578 6.9473 17.3001 6.9473 16.9572 C 6.9473 16.6143 6.6694 16.3364 6.3265 16.3364 C 5.9838 16.3364 5.7057 16.6143 5.7057 16.9572 C 5.7057 17.3001 5.9838 17.578 6.3265 17.578 ZM 13.0103 1.0158 L 0.9734 1.0158 L 0.9734 15.97 L 13.0103 15.97 L 13.0103 1.0158 Z" fill="#91a1b1"/>
</svg>