<?xml version="1.0" encoding="utf-8"?>
<!-- Generator: Adobe Illustrator 16.0.2, SVG Export Plug-In . SVG Version: 6.00 Build 0)  -->
<!DOCTYPE svg PUBLIC "-//W3C//DTD SVG 1.1//EN" "http://www.w3.org/Graphics/SVG/1.1/DTD/svg11.dtd">
<svg version="1.1" xmlns="http://www.w3.org/2000/svg" xmlns:xlink="http://www.w3.org/1999/xlink" x="0px" y="0px" width="31px"
	 height="31px" viewBox="0 0 31 31" enable-background="new 0 0 31 31" xml:space="preserve">
<g id="Layer_4" display="none">
	<g id="Shape_28_2_" display="inline">
		<g>
			<path fill-rule="evenodd" clip-rule="evenodd" fill="#FFFFFF" d="M19.344,5.189c-0.026-0.296-0.17-0.158-0.586-0.158H2.338
				c-0.334,0-0.62-0.086-0.759,0.03c-0.363,0.03-0.636,0.142-0.636,0.544v14.229c0,0.537,0.487,0.972,1.024,0.972
				c0.029,0,0.055-0.014,0.083-0.017c0.157,0.098,0.332,0.169,0.531,0.169h9.131c0.559,0,1.012-0.443,1.012-1.002
				s-0.453-0.875-1.012-0.875H2.99V6.996h15.027v4.602c0,0.537-0.109,0.972,0.428,0.972s1.6-0.435,1.6-0.972V5.605
				C20.045,5.311,19.723,5.217,19.344,5.189z"/>
		</g>
	</g>
	<g id="Shape_28_copy_1_" display="inline">
		<g>
			<path fill-rule="evenodd" clip-rule="evenodd" fill="#127DB5" d="M30.005,24.594V12.199c0-0.208-0.089-0.391-0.212-0.548
				c-0.11-0.352-0.42-0.632-0.797-0.632H12.834c-0.47,0-0.85,0.429-0.85,0.897c0,0.47,0.38,1.041,0.85,1.041h15.105v11.02H13.988
				v-3.615c0-0.536-0.254-0.971-0.791-0.971s-1.171,0.435-1.171,0.971v4.621c0,0.449,0.445,0.823,0.905,0.934
				c0.115,0.066,0.239,0.108,0.37,0.108H29.03c0.559,0,1.012-0.705,1.012-1.264C30.042,24.695,30.017,24.649,30.005,24.594z"/>
		</g>
	</g>
</g>
<g id="Layer_2">
	<g id="Shape_28">
		<g>
			<path fill-rule="evenodd" clip-rule="evenodd" fill="#52677E" d="M19.344,5.189c-0.026-0.296-0.17-0.158-0.586-0.158H2.338
				c-0.334,0-0.62-0.086-0.759,0.03c-0.363,0.03-0.636,0.142-0.636,0.544v14.229c0,0.537,0.487,0.972,1.024,0.972
				c0.029,0,0.055-0.014,0.083-0.017c0.157,0.098,0.332,0.169,0.531,0.169h9.131c0.559,0,1.012-0.443,1.012-1.002
				s-0.453-0.875-1.012-0.875H2.99V6.996h15.027v4.602c0,0.537-0.109,0.972,0.428,0.972s1.6-0.435,1.6-0.972V5.605
				C20.045,5.311,19.723,5.217,19.344,5.189z"/>
		</g>
	</g>
	<g id="Shape_28_copy">
		<g>
			<path fill-rule="evenodd" clip-rule="evenodd" fill="#127DB5" d="M30.005,24.594V12.199c0-0.208-0.089-0.391-0.212-0.548
				c-0.11-0.352-0.42-0.632-0.797-0.632H12.834c-0.47,0-0.85,0.429-0.85,0.897c0,0.47,0.38,1.041,0.85,1.041h15.105v11.02H13.988
				v-3.615c0-0.536-0.254-0.971-0.791-0.971s-1.171,0.435-1.171,0.971v4.621c0,0.449,0.445,0.823,0.905,0.934
				c0.115,0.066,0.239,0.108,0.37,0.108H29.03c0.559,0,1.012-0.705,1.012-1.264C30.042,24.695,30.017,24.649,30.005,24.594z"/>
		</g>
	</g>
	<g>
	</g>
	<g>
	</g>
	<g>
	</g>
	<g>
	</g>
	<g>
	</g>
	<g>
	</g>
	<g>
	</g>
	<g>
	</g>
	<g>
	</g>
	<g>
	</g>
	<g>
	</g>
	<g>
	</g>
	<g>
	</g>
	<g>
	</g>
	<g>
	</g>
</g>
</svg>
