<?xml version="1.0" encoding="utf-8"?>
<!-- Generator: Adobe Illustrator 16.0.2, SVG Export Plug-In . SVG Version: 6.00 Build 0)  -->
<!DOCTYPE svg PUBLIC "-//W3C//DTD SVG 1.1//EN" "http://www.w3.org/Graphics/SVG/1.1/DTD/svg11.dtd">
<svg version="1.1" xmlns="http://www.w3.org/2000/svg" xmlns:xlink="http://www.w3.org/1999/xlink" x="0px" y="0px" width="31px"
	 height="31px" viewBox="0 0 31 31" enable-background="new 0 0 31 31" xml:space="preserve">
<g id="Layer_4" display="none">
	<g id="Shape_28_2_" display="inline">
		<g>
			<path fill-rule="evenodd" clip-rule="evenodd" fill="#FFFFFF" d="M19.344,5.189c-0.026-0.296-0.17-0.158-0.586-0.158H2.338
				c-0.334,0-0.62-0.086-0.759,0.03c-0.363,0.03-0.636,0.142-0.636,0.544v14.229c0,0.537,0.487,0.972,1.024,0.972
				c0.029,0,0.055-0.014,0.083-0.017c0.157,0.098,0.332,0.169,0.531,0.169h9.131c0.559,0,1.012-0.443,1.012-1.002
				s-0.453-0.875-1.012-0.875H2.99V6.996h15.027v4.602c0,0.537-0.109,0.972,0.428,0.972s1.6-0.435,1.6-0.972V5.605
				C20.045,5.311,19.723,5.217,19.344,5.189z"/>
		</g>
	</g>
	<g id="Shape_28_copy_1_" display="inline">
		<g>
			<path fill-rule="evenodd" clip-rule="evenodd" fill="#127DB5" d="M30.005,24.594V12.199c0-0.208-0.089-0.391-0.212-0.548
				c-0.11-0.352-0.42-0.632-0.797-0.632H12.834c-0.47,0-0.85,0.429-0.85,0.897c0,0.47,0.38,1.041,0.85,1.041h15.105v11.02H13.988
				v-3.615c0-0.536-0.254-0.971-0.791-0.971s-1.171,0.435-1.171,0.971v4.621c0,0.449,0.445,0.823,0.905,0.934
				c0.115,0.066,0.239,0.108,0.37,0.108H29.03c0.559,0,1.012-0.705,1.012-1.264C30.042,24.695,30.017,24.649,30.005,24.594z"/>
		</g>
	</g>
</g>
<g id="Layer_2" display="none">
	<g id="Shape_28" display="inline">
		<g>
			<path fill-rule="evenodd" clip-rule="evenodd" fill="#52677E" d="M19.344,5.189c-0.026-0.296-0.17-0.158-0.586-0.158H2.338
				c-0.334,0-0.62-0.086-0.759,0.03c-0.363,0.03-0.636,0.142-0.636,0.544v14.229c0,0.537,0.487,0.972,1.024,0.972
				c0.029,0,0.055-0.014,0.083-0.017c0.157,0.098,0.332,0.169,0.531,0.169h9.131c0.559,0,1.012-0.443,1.012-1.002
				s-0.453-0.875-1.012-0.875H2.99V6.996h15.027v4.602c0,0.537-0.109,0.972,0.428,0.972s1.6-0.435,1.6-0.972V5.605
				C20.045,5.311,19.723,5.217,19.344,5.189z"/>
		</g>
	</g>
	<g id="Shape_28_copy" display="inline">
		<g>
			<path fill-rule="evenodd" clip-rule="evenodd" fill="#127DB5" d="M30.005,24.594V12.199c0-0.208-0.089-0.391-0.212-0.548
				c-0.11-0.352-0.42-0.632-0.797-0.632H12.834c-0.47,0-0.85,0.429-0.85,0.897c0,0.47,0.38,1.041,0.85,1.041h15.105v11.02H13.988
				v-3.615c0-0.536-0.254-0.971-0.791-0.971s-1.171,0.435-1.171,0.971v4.621c0,0.449,0.445,0.823,0.905,0.934
				c0.115,0.066,0.239,0.108,0.37,0.108H29.03c0.559,0,1.012-0.705,1.012-1.264C30.042,24.695,30.017,24.649,30.005,24.594z"/>
		</g>
	</g>
</g>
<g id="Layer_3" display="none">
	<g id="Shape_28_copy_2" display="inline">
		<g>
			<path fill-rule="evenodd" clip-rule="evenodd" fill="#127DB5" d="M28.328,4.436c-1.196,0-2.166,0.874-2.166,1.951
				c0,0.042,0.011,0.082,0.014,0.123l-6.254,3.853c-0.396-0.391-0.96-0.641-1.594-0.641c-0.076,0-0.147,0.013-0.221,0.02
				l-2.943-3.609c-0.307-0.338-0.891-0.285-1.375,0.073c-0.136,0.1-0.212,0.192-0.251,0.28l-6.305,4.317
				c-0.171-0.041-0.347-0.069-0.532-0.069c-1.151,0-2.085,0.841-2.085,1.878s0.934,1.878,2.085,1.878s2.085-0.841,2.085-1.878
				c0-0.272-0.067-0.529-0.183-0.763l5.764-3.947l2.061,2.853c-0.164,0.275-0.266,0.584-0.266,0.918c0,1.077,0.97,1.95,2.166,1.95
				c1.108,0,2.012-0.754,2.139-1.723l6.502-4.006c0.372,0.273,0.842,0.443,1.359,0.443c1.195,0,2.164-0.873,2.164-1.95
				S29.523,4.436,28.328,4.436z"/>
		</g>
	</g>
	<g id="Shape_28_4_" display="inline">
		<g>
			<path fill-rule="evenodd" clip-rule="evenodd" fill="#52677E" d="M27.663,24.972H2.042V5.855c0-0.564-0.648-0.876-1.213-0.876
				c-0.564,0-0.84,0.312-0.84,0.876v19.552c0,0.564,0.567,1.022,1.132,1.022c0.048,0,0.086-0.021,0.131-0.027
				c0.195,0.345,0.482,0.622,0.807,0.622h25.603c0.589,0,1.065-0.901,1.065-1.489C28.729,24.946,28.252,24.972,27.663,24.972z
				 M27.5,10.793c-1.157,0-2.096,0.938-2.096,2.095c0,0.178,0.029,0.348,0.071,0.513l-5.615,3.492
				c-0.383-0.491-0.974-0.813-1.646-0.813c-0.157,0-0.309,0.021-0.455,0.053l-2.168-3.331c-0.277-0.337-0.907-0.306-1.344,0.053
				c-0.087,0.071-0.142,0.143-0.18,0.214l-6.332,4.276c-0.281-0.157-0.6-0.254-0.945-0.254c-1.077,0-1.95,0.873-1.95,1.95
				s0.873,1.951,1.95,1.951s1.951-0.874,1.951-1.951c0-0.099-0.015-0.192-0.029-0.287l6.088-4.113l1.613,2.478
				c-0.183,0.311-0.295,0.669-0.295,1.056c0,1.157,0.938,2.095,2.096,2.095c1.003,0,1.838-0.706,2.043-1.647l6.262-3.893
				c0.294,0.157,0.624,0.254,0.98,0.254c1.156,0,2.095-0.938,2.095-2.095S28.656,10.793,27.5,10.793z"/>
		</g>
	</g>
</g>
<g id="Layer_5" display="none">
	<g id="Shape_28_copy_2_2_" display="inline">
		<g>
			<path fill-rule="evenodd" clip-rule="evenodd" fill="#127DB5" d="M28.328,4.436c-1.196,0-2.166,0.874-2.166,1.951
				c0,0.042,0.011,0.082,0.014,0.123l-6.254,3.853c-0.396-0.391-0.96-0.641-1.594-0.641c-0.076,0-0.147,0.013-0.221,0.02
				l-2.943-3.609c-0.307-0.338-0.891-0.285-1.375,0.073c-0.136,0.1-0.212,0.192-0.251,0.28l-6.305,4.317
				c-0.171-0.041-0.347-0.069-0.532-0.069c-1.151,0-2.085,0.841-2.085,1.878s0.934,1.878,2.085,1.878s2.085-0.841,2.085-1.878
				c0-0.272-0.067-0.529-0.183-0.763l5.764-3.947l2.061,2.853c-0.164,0.275-0.266,0.584-0.266,0.918c0,1.077,0.97,1.95,2.166,1.95
				c1.108,0,2.012-0.754,2.139-1.723l6.502-4.006c0.372,0.273,0.842,0.443,1.359,0.443c1.195,0,2.164-0.873,2.164-1.95
				S29.523,4.436,28.328,4.436z"/>
		</g>
	</g>
	<g id="Shape_28_6_" display="inline">
		<g>
			<path fill-rule="evenodd" clip-rule="evenodd" fill="#FFFFFF" d="M27.663,24.972H2.042V5.855c0-0.564-0.648-0.876-1.213-0.876
				c-0.564,0-0.84,0.312-0.84,0.876v19.552c0,0.564,0.567,1.022,1.132,1.022c0.048,0,0.086-0.021,0.131-0.027
				c0.195,0.345,0.482,0.622,0.807,0.622h25.603c0.589,0,1.065-0.901,1.065-1.489C28.729,24.946,28.252,24.972,27.663,24.972z
				 M27.5,10.793c-1.157,0-2.096,0.938-2.096,2.095c0,0.178,0.029,0.348,0.071,0.513l-5.615,3.492
				c-0.383-0.491-0.974-0.813-1.646-0.813c-0.157,0-0.309,0.021-0.455,0.053l-2.168-3.331c-0.277-0.337-0.907-0.306-1.344,0.053
				c-0.087,0.071-0.142,0.143-0.18,0.214l-6.332,4.276c-0.281-0.157-0.6-0.254-0.945-0.254c-1.077,0-1.95,0.873-1.95,1.95
				s0.873,1.951,1.95,1.951s1.951-0.874,1.951-1.951c0-0.099-0.015-0.192-0.029-0.287l6.088-4.113l1.613,2.478
				c-0.183,0.311-0.295,0.669-0.295,1.056c0,1.157,0.938,2.095,2.096,2.095c1.003,0,1.838-0.706,2.043-1.647l6.262-3.893
				c0.294,0.157,0.624,0.254,0.98,0.254c1.156,0,2.095-0.938,2.095-2.095S28.656,10.793,27.5,10.793z"/>
		</g>
	</g>
</g>
<g id="Layer_6">
	<g id="Shape_32_copy">
		<g>
			<path fill-rule="evenodd" clip-rule="evenodd" fill="#127DB5" d="M23.33,3.396c0.063,0.833,0.052,1.63,0.007,2.313
				c4.102,2.988,5.843,8.477,3.879,13.403c-0.649,1.627-1.643,3.012-2.852,4.127c0.181,0.645,0.356,1.361,0.512,2.107
				c1.784-1.398,3.241-3.264,4.141-5.518C31.491,13.625,28.942,6.654,23.33,3.396z"/>
		</g>
	</g>
	<g id="Shape_32">
		<g>
			<path fill-rule="evenodd" clip-rule="evenodd" fill="#52677E" d="M7.799,22.754c-2.591-2.082-4.21-5.235-4.105-8.719
				C3.875,8.008,9.124,3.258,15.395,3.447c1.294,0.039,2.526,0.295,3.675,0.714c0.144-0.125,0.737-0.639,1.592-1.381
				c-1.59-0.714-3.35-1.139-5.21-1.195C8.111,1.365,1.968,6.923,1.756,13.977C1.63,18.171,3.64,21.952,6.825,24.385
				C7.046,23.726,7.432,23.139,7.799,22.754z"/>
		</g>
	</g>
	<g>
		<path fill="#52677E" d="M13.586,29.95v-2.897c-1.664-0.029-3.385-0.545-4.389-1.262l0.688-1.923
			c1.033,0.688,2.524,1.233,4.131,1.233c2.037,0,3.414-1.176,3.414-2.811c0-1.578-1.119-2.554-3.242-3.414
			c-2.926-1.147-4.733-2.467-4.733-4.963c0-2.381,1.692-4.188,4.332-4.618V6.398h1.778v2.782c1.721,0.058,2.898,0.517,3.73,1.004
			l-0.718,1.893c-0.603-0.344-1.778-0.975-3.614-0.975c-2.209,0-3.041,1.319-3.041,2.467c0,1.492,1.062,2.238,3.557,3.27
			c2.955,1.205,4.447,2.697,4.447,5.25c0,2.266-1.578,4.389-4.533,4.877v2.983H13.586z"/>
	</g>
	<g>
	</g>
	<g>
	</g>
	<g>
	</g>
	<g>
	</g>
	<g>
	</g>
	<g>
	</g>
	<g>
	</g>
	<g>
	</g>
	<g>
	</g>
	<g>
	</g>
	<g>
	</g>
	<g>
	</g>
	<g>
	</g>
	<g>
	</g>
	<g>
	</g>
</g>
</svg>
