<?xml version="1.0" standalone="no"?>
<!-- Generator: Adobe Fireworks 10, Export SVG Extension by Aaron Beall (http://fireworks.abeall.com) . Version: 0.6.0  -->
<!DOCTYPE svg PUBLIC "-//W3C//DTD SVG 1.1//EN" "http://www.w3.org/Graphics/SVG/1.1/DTD/svg11.dtd">
<svg id="" viewBox="0 0 17 18" style="background-color:#ffffff00" version="1.1"
	xmlns="http://www.w3.org/2000/svg" xmlns:xlink="http://www.w3.org/1999/xlink" xml:space="preserve"
	x="0px" y="0px" width="17px" height="18px"
>
	<g id="Layer%201">
		<path id="Shape%2017" d="M 9.3264 3.5033 C 12.4285 3.5033 14.9432 6.0179 14.9432 9.12 C 14.9432 12.222 12.4285 14.7367 9.3264 14.7367 C 6.2245 14.7367 3.7098 12.222 3.7098 9.12 C 3.7098 6.0179 6.2245 3.5033 9.3264 3.5033 Z" fill="#117db5"/>
		<path id="Shape%2030" d="M 15.9711 5.7935 C 15.4324 4.6603 14.63 3.6358 13.5266 2.8715 C 10.1566 0.5374 5.516 1.3802 3.1819 4.7502 C 0.8478 8.1202 1.6907 12.7608 5.0605 15.0949 C 7.6235 16.8701 10.9158 16.7981 13.3751 15.1839 C 13.9052 15.4641 13.9948 16.0195 13.9047 16.5902 C 10.9928 18.3491 7.1974 18.3609 4.2246 16.3019 C 0.189 13.5068 -0.8203 7.9498 1.9749 3.9142 C 4.77 -0.1214 10.327 -1.1306 14.3625 1.6645 C 15.7979 2.6586 16.8422 4.0052 17.4768 5.5054 C 16.958 5.8674 16.4211 5.8911 15.9711 5.7935 Z" fill="#91a1b1"/>
	</g>
</svg>