<?xml version="1.0" standalone="no"?>
<!-- Generator: Adobe Fireworks 10, Export SVG Extension by Aaron Beall (http://fireworks.abeall.com) . Version: 0.6.0  -->
<!DOCTYPE svg PUBLIC "-//W3C//DTD SVG 1.1//EN" "http://www.w3.org/Graphics/SVG/1.1/DTD/svg11.dtd">
<svg id="" viewBox="0 0 24 23" style="background-color:#ffffff00" version="1.1"
	xmlns="http://www.w3.org/2000/svg" xmlns:xlink="http://www.w3.org/1999/xlink" xml:space="preserve"
	x="0px" y="0px" width="24px" height="23px"
>
	<g id="Layer%201">
		<path id="Shape%2028%20copy%203" d="M 17.756 16.8903 L 6.3885 16.8903 C 6.2851 16.8903 6.1874 16.8555 6.0982 16.799 C 5.7741 16.712 5.4668 16.4544 5.4668 16.1371 L 5.4668 12.7979 C 5.4668 12.4102 5.9255 12.0958 6.3133 12.0958 C 6.701 12.0958 6.8848 12.4102 6.8848 12.7979 L 6.8848 15.4103 L 16.9676 15.4103 L 16.9676 7.446 L 6.0503 7.446 C 5.7111 7.446 5.436 7.0334 5.436 6.6941 C 5.436 6.3549 5.7111 6.0453 6.0503 6.0453 L 17.731 6.0453 C 18.0035 6.0453 18.227 6.2474 18.3073 6.5019 C 18.3958 6.6163 18.4604 6.7482 18.4604 6.8988 L 18.4604 15.856 C 18.469 15.8967 18.4873 15.9297 18.4873 15.9768 C 18.4873 16.3807 18.1599 16.8903 17.756 16.8903 Z" fill="#556981"/>
		<path id="Shape%2028%20copy%204" d="M 23.0815 5.0701 C 22.6938 5.0735 22.5073 4.7608 22.504 4.3731 L 22.4853 2.2402 L 19.9691 5.0103 C 19.7045 5.2936 19.2367 5.2868 18.9533 5.022 C 18.67 4.7574 18.6136 4.2745 18.8782 3.9911 L 21.4025 1.2122 L 19.2567 1.3395 C 18.8697 1.3624 18.545 1.1976 18.522 0.8106 C 18.4991 0.4235 18.7856 -0.0531 19.1728 -0.076 L 22.5061 -0.2738 C 22.7171 -0.2863 22.9086 -0.1572 23.0482 0.0217 C 23.16 0.0543 23.2672 0.1031 23.3544 0.1846 C 23.4444 0.2686 23.501 0.3764 23.5412 0.4902 C 23.7388 0.6172 23.8909 0.8032 23.8928 1.0216 L 23.9219 4.3607 C 23.9252 4.7484 23.4692 5.0667 23.0815 5.0701 ZM 4.4834 22.7321 L 1.1499 22.9299 C 0.9388 22.9424 0.7473 22.8133 0.6078 22.6343 C 0.496 22.6018 0.3889 22.553 0.3017 22.4715 C 0.2118 22.3875 0.1551 22.2797 0.1149 22.166 C -0.0826 22.0389 -0.2347 21.8529 -0.2367 21.6345 L -0.2657 18.2954 C -0.2691 17.9077 0.1868 17.5894 0.5746 17.586 C 0.9623 17.5827 1.1487 17.8953 1.1522 18.2831 L 1.1707 20.4159 L 3.687 17.6458 C 3.9515 17.3625 4.4194 17.3694 4.7027 17.6341 C 4.986 17.8988 5.0424 18.3816 4.7778 18.665 L 2.2535 21.4439 L 4.3994 21.3167 C 4.7863 21.2937 5.111 21.4585 5.134 21.8455 C 5.1569 22.2326 4.8704 22.7092 4.4834 22.7321 ZM 4.3994 1.3395 L 2.2535 1.2122 L 4.7778 3.9911 C 5.0424 4.2745 4.986 4.7574 4.7027 5.022 C 4.4194 5.2868 3.9515 5.2936 3.687 5.0103 L 1.1707 2.2402 L 1.1522 4.3731 C 1.1487 4.7608 0.9623 5.0735 0.5746 5.0701 C 0.1868 5.0667 -0.2691 4.7484 -0.2657 4.3607 L -0.2367 1.0216 C -0.2347 0.8032 -0.0826 0.6172 0.1149 0.4902 C 0.1551 0.3764 0.2117 0.2686 0.3017 0.1846 C 0.3889 0.1031 0.496 0.0543 0.6078 0.0217 C 0.7474 -0.1572 0.9389 -0.2863 1.1499 -0.2738 L 4.4834 -0.076 C 4.8704 -0.0531 5.1569 0.4235 5.134 0.8106 C 5.111 1.1976 4.7863 1.3624 4.3994 1.3395 ZM 19.2567 21.3167 L 21.4025 21.4439 L 18.8782 18.665 C 18.6136 18.3816 18.67 17.8988 18.9533 17.6341 C 19.2367 17.3694 19.7045 17.3625 19.9691 17.6458 L 22.4853 20.4159 L 22.504 18.2831 C 22.5073 17.8953 22.6938 17.5827 23.0815 17.586 C 23.4692 17.5894 23.9252 17.9077 23.9219 18.2954 L 23.8928 21.6345 C 23.8909 21.8529 23.7388 22.0389 23.5412 22.166 C 23.501 22.2796 23.4443 22.3875 23.3544 22.4715 C 23.2672 22.553 23.1601 22.6018 23.0482 22.6343 C 22.9086 22.8133 22.7172 22.9424 22.5061 22.9299 L 19.1728 22.7321 C 18.7856 22.7092 18.4991 22.2326 18.522 21.8455 C 18.545 21.4585 18.8697 21.2937 19.2567 21.3167 Z" fill="#556981"/>
	</g>
</svg>