<?xml version="1.0" encoding="utf-8"?>
<!-- Generator: Adobe Illustrator 16.0.2, SVG Export Plug-In . SVG Version: 6.00 Build 0)  -->
<!DOCTYPE svg PUBLIC "-//W3C//DTD SVG 1.1//EN" "http://www.w3.org/Graphics/SVG/1.1/DTD/svg11.dtd">
<svg version="1.1" id="Layer_1" xmlns="http://www.w3.org/2000/svg" xmlns:xlink="http://www.w3.org/1999/xlink" x="0px" y="0px"
	 width="11px" height="11px" viewBox="0 0 11 11" enable-background="new 0 0 11 11" xml:space="preserve">
<path fill-rule="evenodd" clip-rule="evenodd" d="M6,0.7v8.6"/>
<path fill-rule="evenodd" clip-rule="evenodd" d="M9.472,6.028h-8.6"/>
<path fill-rule="evenodd" clip-rule="evenodd" d="M6,0.7v8.6"/>
<path fill-rule="evenodd" clip-rule="evenodd" d="M9.472,6.028h-8.6"/>
<g id="Shape_86_copy">
	<g>
		<path fill-rule="evenodd" clip-rule="evenodd" fill="#127DB5" d="M9.8,4.495H6.328V1.2c0-0.607-0.492-1.101-1.101-1.101
			C4.62,0.1,4.295,0.593,4.295,1.2v3.295H1.2C0.593,4.495,0.1,4.82,0.1,5.428S0.593,6.528,1.2,6.528h3.095V9.8
			c0,0.607,0.325,1.101,0.933,1.101c0.608,0,1.101-0.493,1.101-1.101V6.528H9.8c0.607,0,1.1-0.493,1.1-1.101S10.407,4.495,9.8,4.495
			z"/>
	</g>
</g>
<g>
</g>
<g>
</g>
<g>
</g>
<g>
</g>
<g>
</g>
<g>
</g>
<g>
</g>
<g>
</g>
<g>
</g>
<g>
</g>
<g>
</g>
<g>
</g>
<g>
</g>
<g>
</g>
<g>
</g>
</svg>
