<?xml version="1.0" standalone="no"?>
<!-- Generator: Adobe Fireworks 10, Export SVG Extension by Aaron Beall (http://fireworks.abeall.com) . Version: 0.6.0  -->
<!DOCTYPE svg PUBLIC "-//W3C//DTD SVG 1.1//EN" "http://www.w3.org/Graphics/SVG/1.1/DTD/svg11.dtd">
<svg id="" viewBox="0 0 22 18" style="background-color:#ffffff00" version="1.1"
	xmlns="http://www.w3.org/2000/svg" xmlns:xlink="http://www.w3.org/1999/xlink" xml:space="preserve"
	x="0px" y="0px" width="22px" height="18px"
>
	<path id="Shape%2069" d="M 20.7604 13.9957 L 14.5649 13.9957 L 14.5875 14.0791 L 8.4873 14.0791 L 8.5115 13.9957 L 1.1561 13.9957 C 0.5327 13.9957 0.0273 13.4904 0.0273 12.867 L 0.0273 1.0991 C 0.0273 0.4758 0.5327 -0.0296 1.1561 -0.0296 L 20.7604 -0.0296 C 21.3837 -0.0296 21.889 0.4758 21.889 1.0991 L 21.889 12.867 C 21.889 13.4904 21.3837 13.9957 20.7604 13.9957 ZM 21.0104 1.0158 L 0.9894 1.0158 L 0.9894 12.9504 L 21.0104 12.9504 L 21.0104 1.0158 ZM 14.8486 15.0411 L 15.6598 18.0294 L 7.3398 18.0294 L 8.2078 15.0411 L 14.8486 15.0411 Z" fill="#91a1b1"/>
</svg>