<?xml version="1.0" encoding="utf-8"?>
<!-- Generator: Adobe Illustrator 16.0.2, SVG Export Plug-In . SVG Version: 6.00 Build 0)  -->
<!DOCTYPE svg PUBLIC "-//W3C//DTD SVG 1.1//EN" "http://www.w3.org/Graphics/SVG/1.1/DTD/svg11.dtd">
<svg version="1.1" id="Layer_1" xmlns="http://www.w3.org/2000/svg" xmlns:xlink="http://www.w3.org/1999/xlink" x="0px" y="0px"
	 width="27px" height="22px" viewBox="0 0 27 22" enable-background="new 0 0 27 22" xml:space="preserve">
<g id="Shape_58">
	<g>
		<path fill-rule="evenodd" clip-rule="evenodd" fill="#52677E" d="M5.026,14.967c-0.4-1.021-0.628-2.127-0.628-3.286
			c0-5,4.083-9.068,9.102-9.068s9.102,4.068,9.102,9.068c0,1.161-0.229,2.268-0.629,3.289v4.55c1.922-2.061,3.107-4.811,3.107-7.839
			c0-6.362-5.195-11.538-11.58-11.538S1.92,5.318,1.92,11.681c0,3.027,1.186,5.777,3.106,7.838V14.967z"/>
	</g>
</g>
<g id="Shape_61">
	<g>
		<path fill="#127DB5" d="M22.962,3.455C19.29,0.23,17.454,0,13.782,0C7.004,0.115,3.756,4.03,3.756,4.146
			c0,0.69,3.672,2.397,3.672,2.397S9.404,4.24,13.358,4.24s5.79,2.072,5.79,2.072S23.385,3.34,22.962,3.455z"/>
	</g>
</g>
<g id="Shape_59">
	<g>
		<path fill-rule="evenodd" clip-rule="evenodd" fill="#52677E" d="M21.564,15.747v1.034c0,0.655-0.883,1.214-1.538,1.214
			s-1.048-0.531-1.048-1.187v-3.84c0-0.655,0.258-1.79,1.21-1.779c0.155,0.002,0.29,0.029,0.414,0.07l0.259-1.308
			c-0.26-0.081-0.531-0.137-0.818-0.137c-1.533,0-3.026,1.243-3.026,2.777v5.366c0,1.534,1.493,2.777,3.026,2.777
			c1.534,0,2.777-1.243,2.777-2.777v-2.212H21.564z"/>
	</g>
</g>
<g id="Shape_59_copy">
	<g>
		<path fill-rule="evenodd" clip-rule="evenodd" fill="#52677E" d="M6.801,9.815c-0.287,0-0.558,0.056-0.818,0.137l0.259,1.308
			c0.124-0.041,0.259-0.068,0.414-0.07c0.952-0.011,1.21,1.124,1.21,1.779v3.84c0,0.655-0.393,1.187-1.049,1.187
			c-0.655,0-1.537-0.559-1.537-1.214v-1.034H4.023v2.212c0,1.534,1.243,2.777,2.777,2.777c1.533,0,3.026-1.243,3.026-2.777v-5.366
			C9.827,11.059,8.334,9.815,6.801,9.815z"/>
	</g>
</g>
</svg>
